<svg width="1440" height="1024" viewBox="0 0 1440 1024" fill="none" xmlns="http://www.w3.org/2000/svg">
<g opacity="0.5" clip-path="url(#clip0_139_1237)">
<path d="M99.667 21.3333V53.3333H67.667" stroke="#C0DBB6" stroke-width="15" stroke-linecap="round" stroke-linejoin="round"/>
<path d="M-17.667 106.667V74.6667H14.333" stroke="#C0DBB6" stroke-width="15" stroke-linecap="round" stroke-linejoin="round"/>
<path d="M-4.28033 48.0001C-1.57543 40.3563 3.02172 33.5222 9.08216 28.1356C15.1426 22.7491 22.4688 18.9855 30.3772 17.1961C38.2856 15.4068 46.5184 15.6499 54.3074 17.9029C62.0964 20.1558 69.1877 24.3452 74.9197 30.0801L99.6663 53.3334M-17.667 74.6667L7.07967 97.9201C12.8117 103.655 19.903 107.844 27.692 110.097C35.481 112.35 43.7138 112.593 51.6221 110.804C59.5305 109.015 66.8567 105.251 72.9172 99.8645C78.9776 94.4779 83.5748 87.6439 86.2797 80.0001" stroke="#C0DBB6" stroke-width="15" stroke-linecap="round" stroke-linejoin="round"/>
</g>
<g opacity="0.5" clip-path="url(#clip1_139_1237)">
<path d="M270.667 21.3333V53.3333H238.667" stroke="#C0DBB6" stroke-width="15" stroke-linecap="round" stroke-linejoin="round"/>
<path d="M153.333 106.667V74.6667H185.333" stroke="#C0DBB6" stroke-width="15" stroke-linecap="round" stroke-linejoin="round"/>
<path d="M166.72 48.0001C169.425 40.3563 174.022 33.5222 180.082 28.1356C186.143 22.7491 193.469 18.9855 201.377 17.1961C209.286 15.4068 217.518 15.6499 225.307 17.9029C233.096 20.1558 240.188 24.3452 245.92 30.0801L270.666 53.3334M153.333 74.6667L178.08 97.9201C183.812 103.655 190.903 107.844 198.692 110.097C206.481 112.35 214.714 112.593 222.622 110.804C230.531 109.015 237.857 105.251 243.917 99.8645C249.978 94.4779 254.575 87.6439 257.28 80.0001" stroke="#C0DBB6" stroke-width="15" stroke-linecap="round" stroke-linejoin="round"/>
</g>
<g opacity="0.5" clip-path="url(#clip2_139_1237)">
<path d="M441.667 21.3333V53.3333H409.667" stroke="#C0DBB6" stroke-width="15" stroke-linecap="round" stroke-linejoin="round"/>
<path d="M324.333 106.667V74.6667H356.333" stroke="#C0DBB6" stroke-width="15" stroke-linecap="round" stroke-linejoin="round"/>
<path d="M337.72 48.0001C340.425 40.3563 345.022 33.5222 351.082 28.1356C357.143 22.7491 364.469 18.9855 372.377 17.1961C380.286 15.4068 388.518 15.6499 396.307 17.9029C404.096 20.1558 411.188 24.3452 416.92 30.0801L441.666 53.3334M324.333 74.6667L349.08 97.9201C354.812 103.655 361.903 107.844 369.692 110.097C377.481 112.35 385.714 112.593 393.622 110.804C401.531 109.015 408.857 105.251 414.917 99.8645C420.978 94.4779 425.575 87.6439 428.28 80.0001" stroke="#C0DBB6" stroke-width="15" stroke-linecap="round" stroke-linejoin="round"/>
</g>
<g opacity="0.5" clip-path="url(#clip3_139_1237)">
<path d="M612.667 21.3333V53.3333H580.667" stroke="#C0DBB6" stroke-width="15" stroke-linecap="round" stroke-linejoin="round"/>
<path d="M495.333 106.667V74.6667H527.333" stroke="#C0DBB6" stroke-width="15" stroke-linecap="round" stroke-linejoin="round"/>
<path d="M508.72 48.0001C511.425 40.3563 516.022 33.5222 522.082 28.1356C528.143 22.7491 535.469 18.9855 543.377 17.1961C551.286 15.4068 559.518 15.6499 567.307 17.9029C575.096 20.1558 582.188 24.3452 587.92 30.0801L612.666 53.3334M495.333 74.6667L520.08 97.9201C525.812 103.655 532.903 107.844 540.692 110.097C548.481 112.35 556.714 112.593 564.622 110.804C572.531 109.015 579.857 105.251 585.917 99.8645C591.978 94.4779 596.575 87.6439 599.28 80.0001" stroke="#C0DBB6" stroke-width="15" stroke-linecap="round" stroke-linejoin="round"/>
</g>
<g opacity="0.5" clip-path="url(#clip4_139_1237)">
<path d="M783.667 21.3333V53.3333H751.667" stroke="#C0DBB6" stroke-width="15" stroke-linecap="round" stroke-linejoin="round"/>
<path d="M666.333 106.667V74.6667H698.333" stroke="#C0DBB6" stroke-width="15" stroke-linecap="round" stroke-linejoin="round"/>
<path d="M679.72 48.0001C682.425 40.3563 687.022 33.5222 693.082 28.1356C699.143 22.7491 706.469 18.9855 714.377 17.1961C722.286 15.4068 730.518 15.6499 738.307 17.9029C746.096 20.1558 753.188 24.3452 758.92 30.0801L783.666 53.3334M666.333 74.6667L691.08 97.9201C696.812 103.655 703.903 107.844 711.692 110.097C719.481 112.35 727.714 112.593 735.622 110.804C743.531 109.015 750.857 105.251 756.917 99.8645C762.978 94.4779 767.575 87.6439 770.28 80.0001" stroke="#C0DBB6" stroke-width="15" stroke-linecap="round" stroke-linejoin="round"/>
</g>
<g opacity="0.5" clip-path="url(#clip5_139_1237)">
<path d="M954.667 21.3333V53.3333H922.667" stroke="#C0DBB6" stroke-width="15" stroke-linecap="round" stroke-linejoin="round"/>
<path d="M837.333 106.667V74.6667H869.333" stroke="#C0DBB6" stroke-width="15" stroke-linecap="round" stroke-linejoin="round"/>
<path d="M850.72 48.0001C853.425 40.3563 858.022 33.5222 864.082 28.1356C870.143 22.7491 877.469 18.9855 885.377 17.1961C893.286 15.4068 901.518 15.6499 909.307 17.9029C917.096 20.1558 924.188 24.3452 929.92 30.0801L954.666 53.3334M837.333 74.6667L862.08 97.9201C867.812 103.655 874.903 107.844 882.692 110.097C890.481 112.35 898.714 112.593 906.622 110.804C914.531 109.015 921.857 105.251 927.917 99.8645C933.978 94.4779 938.575 87.6439 941.28 80.0001" stroke="#C0DBB6" stroke-width="15" stroke-linecap="round" stroke-linejoin="round"/>
</g>
<g opacity="0.5" clip-path="url(#clip6_139_1237)">
<path d="M1125.67 21.3333V53.3333H1093.67" stroke="#C0DBB6" stroke-width="15" stroke-linecap="round" stroke-linejoin="round"/>
<path d="M1008.33 106.667V74.6667H1040.33" stroke="#C0DBB6" stroke-width="15" stroke-linecap="round" stroke-linejoin="round"/>
<path d="M1021.72 48.0001C1024.42 40.3563 1029.02 33.5222 1035.08 28.1356C1041.14 22.7491 1048.47 18.9855 1056.38 17.1961C1064.29 15.4068 1072.52 15.6499 1080.31 17.9029C1088.1 20.1558 1095.19 24.3452 1100.92 30.0801L1125.67 53.3334M1008.33 74.6667L1033.08 97.9201C1038.81 103.655 1045.9 107.844 1053.69 110.097C1061.48 112.35 1069.71 112.593 1077.62 110.804C1085.53 109.015 1092.86 105.251 1098.92 99.8645C1104.98 94.4779 1109.57 87.6439 1112.28 80.0001" stroke="#C0DBB6" stroke-width="15" stroke-linecap="round" stroke-linejoin="round"/>
</g>
<g opacity="0.5" clip-path="url(#clip7_139_1237)">
<path d="M1296.67 21.3333V53.3333H1264.67" stroke="#C0DBB6" stroke-width="15" stroke-linecap="round" stroke-linejoin="round"/>
<path d="M1179.33 106.667V74.6667H1211.33" stroke="#C0DBB6" stroke-width="15" stroke-linecap="round" stroke-linejoin="round"/>
<path d="M1192.72 48.0001C1195.42 40.3563 1200.02 33.5222 1206.08 28.1356C1212.14 22.7491 1219.47 18.9855 1227.38 17.1961C1235.29 15.4068 1243.52 15.6499 1251.31 17.9029C1259.1 20.1558 1266.19 24.3452 1271.92 30.0801L1296.67 53.3334M1179.33 74.6667L1204.08 97.9201C1209.81 103.655 1216.9 107.844 1224.69 110.097C1232.48 112.35 1240.71 112.593 1248.62 110.804C1256.53 109.015 1263.86 105.251 1269.92 99.8645C1275.98 94.4779 1280.57 87.6439 1283.28 80.0001" stroke="#C0DBB6" stroke-width="15" stroke-linecap="round" stroke-linejoin="round"/>
</g>
<g opacity="0.5" clip-path="url(#clip8_139_1237)">
<path d="M1467.67 21.3333V53.3333H1435.67" stroke="#C0DBB6" stroke-width="15" stroke-linecap="round" stroke-linejoin="round"/>
<path d="M1350.33 106.667V74.6667H1382.33" stroke="#C0DBB6" stroke-width="15" stroke-linecap="round" stroke-linejoin="round"/>
<path d="M1363.72 48.0001C1366.42 40.3563 1371.02 33.5222 1377.08 28.1356C1383.14 22.7491 1390.47 18.9855 1398.38 17.1961C1406.29 15.4068 1414.52 15.6499 1422.31 17.9029C1430.1 20.1558 1437.19 24.3452 1442.92 30.0801L1467.67 53.3334M1350.33 74.6667L1375.08 97.9201C1380.81 103.655 1387.9 107.844 1395.69 110.097C1403.48 112.35 1411.71 112.593 1419.62 110.804C1427.53 109.015 1434.86 105.251 1440.92 99.8645C1446.98 94.4779 1451.57 87.6439 1454.28 80.0001" stroke="#C0DBB6" stroke-width="15" stroke-linecap="round" stroke-linejoin="round"/>
</g>
<g opacity="0.5" clip-path="url(#clip9_139_1237)">
<path d="M94.667 149.333V181.333H62.667" stroke="#C0DBB6" stroke-width="15" stroke-linecap="round" stroke-linejoin="round"/>
<path d="M-22.667 234.667V202.667H9.33301" stroke="#C0DBB6" stroke-width="15" stroke-linecap="round" stroke-linejoin="round"/>
<path d="M-9.28033 176C-6.57543 168.356 -1.97828 161.522 4.08216 156.136C10.1426 150.749 17.4688 146.985 25.3772 145.196C33.2856 143.407 41.5184 143.65 49.3074 145.903C57.0964 148.156 64.1877 152.345 69.9197 158.08L94.6663 181.333M-22.667 202.667L2.07967 225.92C7.81166 231.655 14.903 235.844 22.692 238.097C30.481 240.35 38.7138 240.593 46.6221 238.804C54.5305 237.015 61.8567 233.251 67.9172 227.865C73.9776 222.478 78.5748 215.644 81.2797 208" stroke="#C0DBB6" stroke-width="15" stroke-linecap="round" stroke-linejoin="round"/>
</g>
<g opacity="0.5" clip-path="url(#clip10_139_1237)">
<path d="M265.667 149.333V181.333H233.667" stroke="#C0DBB6" stroke-width="15" stroke-linecap="round" stroke-linejoin="round"/>
<path d="M148.333 234.667V202.667H180.333" stroke="#C0DBB6" stroke-width="15" stroke-linecap="round" stroke-linejoin="round"/>
<path d="M161.72 176C164.425 168.356 169.022 161.522 175.082 156.136C181.143 150.749 188.469 146.985 196.377 145.196C204.286 143.407 212.518 143.65 220.307 145.903C228.096 148.156 235.188 152.345 240.92 158.08L265.666 181.333M148.333 202.667L173.08 225.92C178.812 231.655 185.903 235.844 193.692 238.097C201.481 240.35 209.714 240.593 217.622 238.804C225.531 237.015 232.857 233.251 238.917 227.865C244.978 222.478 249.575 215.644 252.28 208" stroke="#C0DBB6" stroke-width="15" stroke-linecap="round" stroke-linejoin="round"/>
</g>
<g opacity="0.5" clip-path="url(#clip11_139_1237)">
<path d="M436.667 149.333V181.333H404.667" stroke="#C0DBB6" stroke-width="15" stroke-linecap="round" stroke-linejoin="round"/>
<path d="M319.333 234.667V202.667H351.333" stroke="#C0DBB6" stroke-width="15" stroke-linecap="round" stroke-linejoin="round"/>
<path d="M332.72 176C335.425 168.356 340.022 161.522 346.082 156.136C352.143 150.749 359.469 146.985 367.377 145.196C375.286 143.407 383.518 143.65 391.307 145.903C399.096 148.156 406.188 152.345 411.92 158.08L436.666 181.333M319.333 202.667L344.08 225.92C349.812 231.655 356.903 235.844 364.692 238.097C372.481 240.35 380.714 240.593 388.622 238.804C396.531 237.015 403.857 233.251 409.917 227.865C415.978 222.478 420.575 215.644 423.28 208" stroke="#C0DBB6" stroke-width="15" stroke-linecap="round" stroke-linejoin="round"/>
</g>
<g opacity="0.5" clip-path="url(#clip12_139_1237)">
<path d="M607.667 149.333V181.333H575.667" stroke="#C0DBB6" stroke-width="15" stroke-linecap="round" stroke-linejoin="round"/>
<path d="M490.333 234.667V202.667H522.333" stroke="#C0DBB6" stroke-width="15" stroke-linecap="round" stroke-linejoin="round"/>
<path d="M503.72 176C506.425 168.356 511.022 161.522 517.082 156.136C523.143 150.749 530.469 146.985 538.377 145.196C546.286 143.407 554.518 143.65 562.307 145.903C570.096 148.156 577.188 152.345 582.92 158.08L607.666 181.333M490.333 202.667L515.08 225.92C520.812 231.655 527.903 235.844 535.692 238.097C543.481 240.35 551.714 240.593 559.622 238.804C567.531 237.015 574.857 233.251 580.917 227.865C586.978 222.478 591.575 215.644 594.28 208" stroke="#C0DBB6" stroke-width="15" stroke-linecap="round" stroke-linejoin="round"/>
</g>
<g opacity="0.5" clip-path="url(#clip13_139_1237)">
<path d="M778.667 149.333V181.333H746.667" stroke="#C0DBB6" stroke-width="15" stroke-linecap="round" stroke-linejoin="round"/>
<path d="M661.333 234.667V202.667H693.333" stroke="#C0DBB6" stroke-width="15" stroke-linecap="round" stroke-linejoin="round"/>
<path d="M674.72 176C677.425 168.356 682.022 161.522 688.082 156.136C694.143 150.749 701.469 146.985 709.377 145.196C717.286 143.407 725.518 143.65 733.307 145.903C741.096 148.156 748.188 152.345 753.92 158.08L778.666 181.333M661.333 202.667L686.08 225.92C691.812 231.655 698.903 235.844 706.692 238.097C714.481 240.35 722.714 240.593 730.622 238.804C738.531 237.015 745.857 233.251 751.917 227.865C757.978 222.478 762.575 215.644 765.28 208" stroke="#C0DBB6" stroke-width="15" stroke-linecap="round" stroke-linejoin="round"/>
</g>
<g opacity="0.5" clip-path="url(#clip14_139_1237)">
<path d="M949.667 149.333V181.333H917.667" stroke="#C0DBB6" stroke-width="15" stroke-linecap="round" stroke-linejoin="round"/>
<path d="M832.333 234.667V202.667H864.333" stroke="#C0DBB6" stroke-width="15" stroke-linecap="round" stroke-linejoin="round"/>
<path d="M845.72 176C848.425 168.356 853.022 161.522 859.082 156.136C865.143 150.749 872.469 146.985 880.377 145.196C888.286 143.407 896.518 143.65 904.307 145.903C912.096 148.156 919.188 152.345 924.92 158.08L949.666 181.333M832.333 202.667L857.08 225.92C862.812 231.655 869.903 235.844 877.692 238.097C885.481 240.35 893.714 240.593 901.622 238.804C909.531 237.015 916.857 233.251 922.917 227.865C928.978 222.478 933.575 215.644 936.28 208" stroke="#C0DBB6" stroke-width="15" stroke-linecap="round" stroke-linejoin="round"/>
</g>
<g opacity="0.5" clip-path="url(#clip15_139_1237)">
<path d="M1120.67 149.333V181.333H1088.67" stroke="#C0DBB6" stroke-width="15" stroke-linecap="round" stroke-linejoin="round"/>
<path d="M1003.33 234.667V202.667H1035.33" stroke="#C0DBB6" stroke-width="15" stroke-linecap="round" stroke-linejoin="round"/>
<path d="M1016.72 176C1019.42 168.356 1024.02 161.522 1030.08 156.136C1036.14 150.749 1043.47 146.985 1051.38 145.196C1059.29 143.407 1067.52 143.65 1075.31 145.903C1083.1 148.156 1090.19 152.345 1095.92 158.08L1120.67 181.333M1003.33 202.667L1028.08 225.92C1033.81 231.655 1040.9 235.844 1048.69 238.097C1056.48 240.35 1064.71 240.593 1072.62 238.804C1080.53 237.015 1087.86 233.251 1093.92 227.865C1099.98 222.478 1104.57 215.644 1107.28 208" stroke="#C0DBB6" stroke-width="15" stroke-linecap="round" stroke-linejoin="round"/>
</g>
<g opacity="0.5" clip-path="url(#clip16_139_1237)">
<path d="M1291.67 149.333V181.333H1259.67" stroke="#C0DBB6" stroke-width="15" stroke-linecap="round" stroke-linejoin="round"/>
<path d="M1174.33 234.667V202.667H1206.33" stroke="#C0DBB6" stroke-width="15" stroke-linecap="round" stroke-linejoin="round"/>
<path d="M1187.72 176C1190.42 168.356 1195.02 161.522 1201.08 156.136C1207.14 150.749 1214.47 146.985 1222.38 145.196C1230.29 143.407 1238.52 143.65 1246.31 145.903C1254.1 148.156 1261.19 152.345 1266.92 158.08L1291.67 181.333M1174.33 202.667L1199.08 225.92C1204.81 231.655 1211.9 235.844 1219.69 238.097C1227.48 240.35 1235.71 240.593 1243.62 238.804C1251.53 237.015 1258.86 233.251 1264.92 227.865C1270.98 222.478 1275.57 215.644 1278.28 208" stroke="#C0DBB6" stroke-width="15" stroke-linecap="round" stroke-linejoin="round"/>
</g>
<g opacity="0.5" clip-path="url(#clip17_139_1237)">
<path d="M1462.67 149.333V181.333H1430.67" stroke="#C0DBB6" stroke-width="15" stroke-linecap="round" stroke-linejoin="round"/>
<path d="M1345.33 234.667V202.667H1377.33" stroke="#C0DBB6" stroke-width="15" stroke-linecap="round" stroke-linejoin="round"/>
<path d="M1358.72 176C1361.42 168.356 1366.02 161.522 1372.08 156.136C1378.14 150.749 1385.47 146.985 1393.38 145.196C1401.29 143.407 1409.52 143.65 1417.31 145.903C1425.1 148.156 1432.19 152.345 1437.92 158.08L1462.67 181.333M1345.33 202.667L1370.08 225.92C1375.81 231.655 1382.9 235.844 1390.69 238.097C1398.48 240.35 1406.71 240.593 1414.62 238.804C1422.53 237.015 1429.86 233.251 1435.92 227.865C1441.98 222.478 1446.57 215.644 1449.28 208" stroke="#C0DBB6" stroke-width="15" stroke-linecap="round" stroke-linejoin="round"/>
</g>
<g opacity="0.5" clip-path="url(#clip18_139_1237)">
<path d="M94.667 277.333V309.333H62.667" stroke="#C0DBB6" stroke-width="15" stroke-linecap="round" stroke-linejoin="round"/>
<path d="M-22.667 362.667V330.667H9.33301" stroke="#C0DBB6" stroke-width="15" stroke-linecap="round" stroke-linejoin="round"/>
<path d="M-9.28033 304C-6.57543 296.356 -1.97828 289.522 4.08216 284.136C10.1426 278.749 17.4688 274.985 25.3772 273.196C33.2856 271.407 41.5184 271.65 49.3074 273.903C57.0964 276.156 64.1877 280.345 69.9197 286.08L94.6663 309.333M-22.667 330.667L2.07967 353.92C7.81166 359.655 14.903 363.844 22.692 366.097C30.481 368.35 38.7138 368.593 46.6221 366.804C54.5305 365.015 61.8567 361.251 67.9172 355.865C73.9776 350.478 78.5748 343.644 81.2797 336" stroke="#C0DBB6" stroke-width="15" stroke-linecap="round" stroke-linejoin="round"/>
</g>
<g opacity="0.5" clip-path="url(#clip19_139_1237)">
<path d="M265.667 277.333V309.333H233.667" stroke="#C0DBB6" stroke-width="15" stroke-linecap="round" stroke-linejoin="round"/>
<path d="M148.333 362.667V330.667H180.333" stroke="#C0DBB6" stroke-width="15" stroke-linecap="round" stroke-linejoin="round"/>
<path d="M161.72 304C164.425 296.356 169.022 289.522 175.082 284.136C181.143 278.749 188.469 274.985 196.377 273.196C204.286 271.407 212.518 271.65 220.307 273.903C228.096 276.156 235.188 280.345 240.92 286.08L265.666 309.333M148.333 330.667L173.08 353.92C178.812 359.655 185.903 363.844 193.692 366.097C201.481 368.35 209.714 368.593 217.622 366.804C225.531 365.015 232.857 361.251 238.917 355.865C244.978 350.478 249.575 343.644 252.28 336" stroke="#C0DBB6" stroke-width="15" stroke-linecap="round" stroke-linejoin="round"/>
</g>
<g opacity="0.5" clip-path="url(#clip20_139_1237)">
<path d="M436.667 277.333V309.333H404.667" stroke="#C0DBB6" stroke-width="15" stroke-linecap="round" stroke-linejoin="round"/>
<path d="M319.333 362.667V330.667H351.333" stroke="#C0DBB6" stroke-width="15" stroke-linecap="round" stroke-linejoin="round"/>
<path d="M332.72 304C335.425 296.356 340.022 289.522 346.082 284.136C352.143 278.749 359.469 274.985 367.377 273.196C375.286 271.407 383.518 271.65 391.307 273.903C399.096 276.156 406.188 280.345 411.92 286.08L436.666 309.333M319.333 330.667L344.08 353.92C349.812 359.655 356.903 363.844 364.692 366.097C372.481 368.35 380.714 368.593 388.622 366.804C396.531 365.015 403.857 361.251 409.917 355.865C415.978 350.478 420.575 343.644 423.28 336" stroke="#C0DBB6" stroke-width="15" stroke-linecap="round" stroke-linejoin="round"/>
</g>
<g opacity="0.5" clip-path="url(#clip21_139_1237)">
<path d="M607.667 277.333V309.333H575.667" stroke="#C0DBB6" stroke-width="15" stroke-linecap="round" stroke-linejoin="round"/>
<path d="M490.333 362.667V330.667H522.333" stroke="#C0DBB6" stroke-width="15" stroke-linecap="round" stroke-linejoin="round"/>
<path d="M503.72 304C506.425 296.356 511.022 289.522 517.082 284.136C523.143 278.749 530.469 274.985 538.377 273.196C546.286 271.407 554.518 271.65 562.307 273.903C570.096 276.156 577.188 280.345 582.92 286.08L607.666 309.333M490.333 330.667L515.08 353.92C520.812 359.655 527.903 363.844 535.692 366.097C543.481 368.35 551.714 368.593 559.622 366.804C567.531 365.015 574.857 361.251 580.917 355.865C586.978 350.478 591.575 343.644 594.28 336" stroke="#C0DBB6" stroke-width="15" stroke-linecap="round" stroke-linejoin="round"/>
</g>
<g opacity="0.5" clip-path="url(#clip22_139_1237)">
<path d="M778.667 277.333V309.333H746.667" stroke="#C0DBB6" stroke-width="15" stroke-linecap="round" stroke-linejoin="round"/>
<path d="M661.333 362.667V330.667H693.333" stroke="#C0DBB6" stroke-width="15" stroke-linecap="round" stroke-linejoin="round"/>
<path d="M674.72 304C677.425 296.356 682.022 289.522 688.082 284.136C694.143 278.749 701.469 274.985 709.377 273.196C717.286 271.407 725.518 271.65 733.307 273.903C741.096 276.156 748.188 280.345 753.92 286.08L778.666 309.333M661.333 330.667L686.08 353.92C691.812 359.655 698.903 363.844 706.692 366.097C714.481 368.35 722.714 368.593 730.622 366.804C738.531 365.015 745.857 361.251 751.917 355.865C757.978 350.478 762.575 343.644 765.28 336" stroke="#C0DBB6" stroke-width="15" stroke-linecap="round" stroke-linejoin="round"/>
</g>
<g opacity="0.5" clip-path="url(#clip23_139_1237)">
<path d="M949.667 277.333V309.333H917.667" stroke="#C0DBB6" stroke-width="15" stroke-linecap="round" stroke-linejoin="round"/>
<path d="M832.333 362.667V330.667H864.333" stroke="#C0DBB6" stroke-width="15" stroke-linecap="round" stroke-linejoin="round"/>
<path d="M845.72 304C848.425 296.356 853.022 289.522 859.082 284.136C865.143 278.749 872.469 274.985 880.377 273.196C888.286 271.407 896.518 271.65 904.307 273.903C912.096 276.156 919.188 280.345 924.92 286.08L949.666 309.333M832.333 330.667L857.08 353.92C862.812 359.655 869.903 363.844 877.692 366.097C885.481 368.35 893.714 368.593 901.622 366.804C909.531 365.015 916.857 361.251 922.917 355.865C928.978 350.478 933.575 343.644 936.28 336" stroke="#C0DBB6" stroke-width="15" stroke-linecap="round" stroke-linejoin="round"/>
</g>
<g opacity="0.5" clip-path="url(#clip24_139_1237)">
<path d="M1120.67 277.333V309.333H1088.67" stroke="#C0DBB6" stroke-width="15" stroke-linecap="round" stroke-linejoin="round"/>
<path d="M1003.33 362.667V330.667H1035.33" stroke="#C0DBB6" stroke-width="15" stroke-linecap="round" stroke-linejoin="round"/>
<path d="M1016.72 304C1019.42 296.356 1024.02 289.522 1030.08 284.136C1036.14 278.749 1043.47 274.985 1051.38 273.196C1059.29 271.407 1067.52 271.65 1075.31 273.903C1083.1 276.156 1090.19 280.345 1095.92 286.08L1120.67 309.333M1003.33 330.667L1028.08 353.92C1033.81 359.655 1040.9 363.844 1048.69 366.097C1056.48 368.35 1064.71 368.593 1072.62 366.804C1080.53 365.015 1087.86 361.251 1093.92 355.865C1099.98 350.478 1104.57 343.644 1107.28 336" stroke="#C0DBB6" stroke-width="15" stroke-linecap="round" stroke-linejoin="round"/>
</g>
<g opacity="0.5" clip-path="url(#clip25_139_1237)">
<path d="M1291.67 277.333V309.333H1259.67" stroke="#C0DBB6" stroke-width="15" stroke-linecap="round" stroke-linejoin="round"/>
<path d="M1174.33 362.667V330.667H1206.33" stroke="#C0DBB6" stroke-width="15" stroke-linecap="round" stroke-linejoin="round"/>
<path d="M1187.72 304C1190.42 296.356 1195.02 289.522 1201.08 284.136C1207.14 278.749 1214.47 274.985 1222.38 273.196C1230.29 271.407 1238.52 271.65 1246.31 273.903C1254.1 276.156 1261.19 280.345 1266.92 286.08L1291.67 309.333M1174.33 330.667L1199.08 353.92C1204.81 359.655 1211.9 363.844 1219.69 366.097C1227.48 368.35 1235.71 368.593 1243.62 366.804C1251.53 365.015 1258.86 361.251 1264.92 355.865C1270.98 350.478 1275.57 343.644 1278.28 336" stroke="#C0DBB6" stroke-width="15" stroke-linecap="round" stroke-linejoin="round"/>
</g>
<g opacity="0.5" clip-path="url(#clip26_139_1237)">
<path d="M1462.67 277.333V309.333H1430.67" stroke="#C0DBB6" stroke-width="15" stroke-linecap="round" stroke-linejoin="round"/>
<path d="M1345.33 362.667V330.667H1377.33" stroke="#C0DBB6" stroke-width="15" stroke-linecap="round" stroke-linejoin="round"/>
<path d="M1358.72 304C1361.42 296.356 1366.02 289.522 1372.08 284.136C1378.14 278.749 1385.47 274.985 1393.38 273.196C1401.29 271.407 1409.52 271.65 1417.31 273.903C1425.1 276.156 1432.19 280.345 1437.92 286.08L1462.67 309.333M1345.33 330.667L1370.08 353.92C1375.81 359.655 1382.9 363.844 1390.69 366.097C1398.48 368.35 1406.71 368.593 1414.62 366.804C1422.53 365.015 1429.86 361.251 1435.92 355.865C1441.98 350.478 1446.57 343.644 1449.28 336" stroke="#C0DBB6" stroke-width="15" stroke-linecap="round" stroke-linejoin="round"/>
</g>
<g opacity="0.5" clip-path="url(#clip27_139_1237)">
<path d="M99.667 405.333V437.333H67.667" stroke="#C0DBB6" stroke-width="15" stroke-linecap="round" stroke-linejoin="round"/>
<path d="M-17.667 490.667V458.667H14.333" stroke="#C0DBB6" stroke-width="15" stroke-linecap="round" stroke-linejoin="round"/>
<path d="M-4.28033 432C-1.57543 424.356 3.02172 417.522 9.08216 412.136C15.1426 406.749 22.4688 402.985 30.3772 401.196C38.2856 399.407 46.5184 399.65 54.3074 401.903C62.0964 404.156 69.1877 408.345 74.9197 414.08L99.6663 437.333M-17.667 458.667L7.07967 481.92C12.8117 487.655 19.903 491.844 27.692 494.097C35.481 496.35 43.7138 496.593 51.6221 494.804C59.5305 493.015 66.8567 489.251 72.9172 483.865C78.9776 478.478 83.5748 471.644 86.2797 464" stroke="#C0DBB6" stroke-width="15" stroke-linecap="round" stroke-linejoin="round"/>
</g>
<g opacity="0.5" clip-path="url(#clip28_139_1237)">
<path d="M270.667 405.333V437.333H238.667" stroke="#C0DBB6" stroke-width="15" stroke-linecap="round" stroke-linejoin="round"/>
<path d="M153.333 490.667V458.667H185.333" stroke="#C0DBB6" stroke-width="15" stroke-linecap="round" stroke-linejoin="round"/>
<path d="M166.72 432C169.425 424.356 174.022 417.522 180.082 412.136C186.143 406.749 193.469 402.985 201.377 401.196C209.286 399.407 217.518 399.65 225.307 401.903C233.096 404.156 240.188 408.345 245.92 414.08L270.666 437.333M153.333 458.667L178.08 481.92C183.812 487.655 190.903 491.844 198.692 494.097C206.481 496.35 214.714 496.593 222.622 494.804C230.531 493.015 237.857 489.251 243.917 483.865C249.978 478.478 254.575 471.644 257.28 464" stroke="#C0DBB6" stroke-width="15" stroke-linecap="round" stroke-linejoin="round"/>
</g>
<g opacity="0.5" clip-path="url(#clip29_139_1237)">
<path d="M441.667 405.333V437.333H409.667" stroke="#C0DBB6" stroke-width="15" stroke-linecap="round" stroke-linejoin="round"/>
<path d="M324.333 490.667V458.667H356.333" stroke="#C0DBB6" stroke-width="15" stroke-linecap="round" stroke-linejoin="round"/>
<path d="M337.72 432C340.425 424.356 345.022 417.522 351.082 412.136C357.143 406.749 364.469 402.985 372.377 401.196C380.286 399.407 388.518 399.65 396.307 401.903C404.096 404.156 411.188 408.345 416.92 414.08L441.666 437.333M324.333 458.667L349.08 481.92C354.812 487.655 361.903 491.844 369.692 494.097C377.481 496.35 385.714 496.593 393.622 494.804C401.531 493.015 408.857 489.251 414.917 483.865C420.978 478.478 425.575 471.644 428.28 464" stroke="#C0DBB6" stroke-width="15" stroke-linecap="round" stroke-linejoin="round"/>
</g>
<g opacity="0.5" clip-path="url(#clip30_139_1237)">
<path d="M612.667 405.333V437.333H580.667" stroke="#C0DBB6" stroke-width="15" stroke-linecap="round" stroke-linejoin="round"/>
<path d="M495.333 490.667V458.667H527.333" stroke="#C0DBB6" stroke-width="15" stroke-linecap="round" stroke-linejoin="round"/>
<path d="M508.72 432C511.425 424.356 516.022 417.522 522.082 412.136C528.143 406.749 535.469 402.985 543.377 401.196C551.286 399.407 559.518 399.65 567.307 401.903C575.096 404.156 582.188 408.345 587.92 414.08L612.666 437.333M495.333 458.667L520.08 481.92C525.812 487.655 532.903 491.844 540.692 494.097C548.481 496.35 556.714 496.593 564.622 494.804C572.531 493.015 579.857 489.251 585.917 483.865C591.978 478.478 596.575 471.644 599.28 464" stroke="#C0DBB6" stroke-width="15" stroke-linecap="round" stroke-linejoin="round"/>
</g>
<g opacity="0.5" clip-path="url(#clip31_139_1237)">
<path d="M783.667 405.333V437.333H751.667" stroke="#C0DBB6" stroke-width="15" stroke-linecap="round" stroke-linejoin="round"/>
<path d="M666.333 490.667V458.667H698.333" stroke="#C0DBB6" stroke-width="15" stroke-linecap="round" stroke-linejoin="round"/>
<path d="M679.72 432C682.425 424.356 687.022 417.522 693.082 412.136C699.143 406.749 706.469 402.985 714.377 401.196C722.286 399.407 730.518 399.65 738.307 401.903C746.096 404.156 753.188 408.345 758.92 414.08L783.666 437.333M666.333 458.667L691.08 481.92C696.812 487.655 703.903 491.844 711.692 494.097C719.481 496.35 727.714 496.593 735.622 494.804C743.531 493.015 750.857 489.251 756.917 483.865C762.978 478.478 767.575 471.644 770.28 464" stroke="#C0DBB6" stroke-width="15" stroke-linecap="round" stroke-linejoin="round"/>
</g>
<g opacity="0.5" clip-path="url(#clip32_139_1237)">
<path d="M954.667 405.333V437.333H922.667" stroke="#C0DBB6" stroke-width="15" stroke-linecap="round" stroke-linejoin="round"/>
<path d="M837.333 490.667V458.667H869.333" stroke="#C0DBB6" stroke-width="15" stroke-linecap="round" stroke-linejoin="round"/>
<path d="M850.72 432C853.425 424.356 858.022 417.522 864.082 412.136C870.143 406.749 877.469 402.985 885.377 401.196C893.286 399.407 901.518 399.65 909.307 401.903C917.096 404.156 924.188 408.345 929.92 414.08L954.666 437.333M837.333 458.667L862.08 481.92C867.812 487.655 874.903 491.844 882.692 494.097C890.481 496.35 898.714 496.593 906.622 494.804C914.531 493.015 921.857 489.251 927.917 483.865C933.978 478.478 938.575 471.644 941.28 464" stroke="#C0DBB6" stroke-width="15" stroke-linecap="round" stroke-linejoin="round"/>
</g>
<g opacity="0.5" clip-path="url(#clip33_139_1237)">
<path d="M1125.67 405.333V437.333H1093.67" stroke="#C0DBB6" stroke-width="15" stroke-linecap="round" stroke-linejoin="round"/>
<path d="M1008.33 490.667V458.667H1040.33" stroke="#C0DBB6" stroke-width="15" stroke-linecap="round" stroke-linejoin="round"/>
<path d="M1021.72 432C1024.42 424.356 1029.02 417.522 1035.08 412.136C1041.14 406.749 1048.47 402.985 1056.38 401.196C1064.29 399.407 1072.52 399.65 1080.31 401.903C1088.1 404.156 1095.19 408.345 1100.92 414.08L1125.67 437.333M1008.33 458.667L1033.08 481.92C1038.81 487.655 1045.9 491.844 1053.69 494.097C1061.48 496.35 1069.71 496.593 1077.62 494.804C1085.53 493.015 1092.86 489.251 1098.92 483.865C1104.98 478.478 1109.57 471.644 1112.28 464" stroke="#C0DBB6" stroke-width="15" stroke-linecap="round" stroke-linejoin="round"/>
</g>
<g opacity="0.5" clip-path="url(#clip34_139_1237)">
<path d="M1296.67 405.333V437.333H1264.67" stroke="#C0DBB6" stroke-width="15" stroke-linecap="round" stroke-linejoin="round"/>
<path d="M1179.33 490.667V458.667H1211.33" stroke="#C0DBB6" stroke-width="15" stroke-linecap="round" stroke-linejoin="round"/>
<path d="M1192.72 432C1195.42 424.356 1200.02 417.522 1206.08 412.136C1212.14 406.749 1219.47 402.985 1227.38 401.196C1235.29 399.407 1243.52 399.65 1251.31 401.903C1259.1 404.156 1266.19 408.345 1271.92 414.08L1296.67 437.333M1179.33 458.667L1204.08 481.92C1209.81 487.655 1216.9 491.844 1224.69 494.097C1232.48 496.35 1240.71 496.593 1248.62 494.804C1256.53 493.015 1263.86 489.251 1269.92 483.865C1275.98 478.478 1280.57 471.644 1283.28 464" stroke="#C0DBB6" stroke-width="15" stroke-linecap="round" stroke-linejoin="round"/>
</g>
<g opacity="0.5" clip-path="url(#clip35_139_1237)">
<path d="M1467.67 405.333V437.333H1435.67" stroke="#C0DBB6" stroke-width="15" stroke-linecap="round" stroke-linejoin="round"/>
<path d="M1350.33 490.667V458.667H1382.33" stroke="#C0DBB6" stroke-width="15" stroke-linecap="round" stroke-linejoin="round"/>
<path d="M1363.72 432C1366.42 424.356 1371.02 417.522 1377.08 412.136C1383.14 406.749 1390.47 402.985 1398.38 401.196C1406.29 399.407 1414.52 399.65 1422.31 401.903C1430.1 404.156 1437.19 408.345 1442.92 414.08L1467.67 437.333M1350.33 458.667L1375.08 481.92C1380.81 487.655 1387.9 491.844 1395.69 494.097C1403.48 496.35 1411.71 496.593 1419.62 494.804C1427.53 493.015 1434.86 489.251 1440.92 483.865C1446.98 478.478 1451.57 471.644 1454.28 464" stroke="#C0DBB6" stroke-width="15" stroke-linecap="round" stroke-linejoin="round"/>
</g>
<g opacity="0.5" clip-path="url(#clip36_139_1237)">
<path d="M94.667 533.333V565.333H62.667" stroke="#C0DBB6" stroke-width="15" stroke-linecap="round" stroke-linejoin="round"/>
<path d="M-22.667 618.667V586.667H9.33301" stroke="#C0DBB6" stroke-width="15" stroke-linecap="round" stroke-linejoin="round"/>
<path d="M-9.28033 560C-6.57543 552.356 -1.97828 545.522 4.08216 540.136C10.1426 534.749 17.4688 530.985 25.3772 529.196C33.2856 527.407 41.5184 527.65 49.3074 529.903C57.0964 532.156 64.1877 536.345 69.9197 542.08L94.6663 565.333M-22.667 586.667L2.07967 609.92C7.81166 615.655 14.903 619.844 22.692 622.097C30.481 624.35 38.7138 624.593 46.6221 622.804C54.5305 621.015 61.8567 617.251 67.9172 611.865C73.9776 606.478 78.5748 599.644 81.2797 592" stroke="#C0DBB6" stroke-width="15" stroke-linecap="round" stroke-linejoin="round"/>
</g>
<g opacity="0.5" clip-path="url(#clip37_139_1237)">
<path d="M265.667 533.333V565.333H233.667" stroke="#C0DBB6" stroke-width="15" stroke-linecap="round" stroke-linejoin="round"/>
<path d="M148.333 618.667V586.667H180.333" stroke="#C0DBB6" stroke-width="15" stroke-linecap="round" stroke-linejoin="round"/>
<path d="M161.72 560C164.425 552.356 169.022 545.522 175.082 540.136C181.143 534.749 188.469 530.985 196.377 529.196C204.286 527.407 212.518 527.65 220.307 529.903C228.096 532.156 235.188 536.345 240.92 542.08L265.666 565.333M148.333 586.667L173.08 609.92C178.812 615.655 185.903 619.844 193.692 622.097C201.481 624.35 209.714 624.593 217.622 622.804C225.531 621.015 232.857 617.251 238.917 611.865C244.978 606.478 249.575 599.644 252.28 592" stroke="#C0DBB6" stroke-width="15" stroke-linecap="round" stroke-linejoin="round"/>
</g>
<g opacity="0.5" clip-path="url(#clip38_139_1237)">
<path d="M436.667 533.333V565.333H404.667" stroke="#C0DBB6" stroke-width="15" stroke-linecap="round" stroke-linejoin="round"/>
<path d="M319.333 618.667V586.667H351.333" stroke="#C0DBB6" stroke-width="15" stroke-linecap="round" stroke-linejoin="round"/>
<path d="M332.72 560C335.425 552.356 340.022 545.522 346.082 540.136C352.143 534.749 359.469 530.985 367.377 529.196C375.286 527.407 383.518 527.65 391.307 529.903C399.096 532.156 406.188 536.345 411.92 542.08L436.666 565.333M319.333 586.667L344.08 609.92C349.812 615.655 356.903 619.844 364.692 622.097C372.481 624.35 380.714 624.593 388.622 622.804C396.531 621.015 403.857 617.251 409.917 611.865C415.978 606.478 420.575 599.644 423.28 592" stroke="#C0DBB6" stroke-width="15" stroke-linecap="round" stroke-linejoin="round"/>
</g>
<g opacity="0.5" clip-path="url(#clip39_139_1237)">
<path d="M607.667 533.333V565.333H575.667" stroke="#C0DBB6" stroke-width="15" stroke-linecap="round" stroke-linejoin="round"/>
<path d="M490.333 618.667V586.667H522.333" stroke="#C0DBB6" stroke-width="15" stroke-linecap="round" stroke-linejoin="round"/>
<path d="M503.72 560C506.425 552.356 511.022 545.522 517.082 540.136C523.143 534.749 530.469 530.985 538.377 529.196C546.286 527.407 554.518 527.65 562.307 529.903C570.096 532.156 577.188 536.345 582.92 542.08L607.666 565.333M490.333 586.667L515.08 609.92C520.812 615.655 527.903 619.844 535.692 622.097C543.481 624.35 551.714 624.593 559.622 622.804C567.531 621.015 574.857 617.251 580.917 611.865C586.978 606.478 591.575 599.644 594.28 592" stroke="#C0DBB6" stroke-width="15" stroke-linecap="round" stroke-linejoin="round"/>
</g>
<g opacity="0.5" clip-path="url(#clip40_139_1237)">
<path d="M778.667 533.333V565.333H746.667" stroke="#C0DBB6" stroke-width="15" stroke-linecap="round" stroke-linejoin="round"/>
<path d="M661.333 618.667V586.667H693.333" stroke="#C0DBB6" stroke-width="15" stroke-linecap="round" stroke-linejoin="round"/>
<path d="M674.72 560C677.425 552.356 682.022 545.522 688.082 540.136C694.143 534.749 701.469 530.985 709.377 529.196C717.286 527.407 725.518 527.65 733.307 529.903C741.096 532.156 748.188 536.345 753.92 542.08L778.666 565.333M661.333 586.667L686.08 609.92C691.812 615.655 698.903 619.844 706.692 622.097C714.481 624.35 722.714 624.593 730.622 622.804C738.531 621.015 745.857 617.251 751.917 611.865C757.978 606.478 762.575 599.644 765.28 592" stroke="#C0DBB6" stroke-width="15" stroke-linecap="round" stroke-linejoin="round"/>
</g>
<g opacity="0.5" clip-path="url(#clip41_139_1237)">
<path d="M949.667 533.333V565.333H917.667" stroke="#C0DBB6" stroke-width="15" stroke-linecap="round" stroke-linejoin="round"/>
<path d="M832.333 618.667V586.667H864.333" stroke="#C0DBB6" stroke-width="15" stroke-linecap="round" stroke-linejoin="round"/>
<path d="M845.72 560C848.425 552.356 853.022 545.522 859.082 540.136C865.143 534.749 872.469 530.985 880.377 529.196C888.286 527.407 896.518 527.65 904.307 529.903C912.096 532.156 919.188 536.345 924.92 542.08L949.666 565.333M832.333 586.667L857.08 609.92C862.812 615.655 869.903 619.844 877.692 622.097C885.481 624.35 893.714 624.593 901.622 622.804C909.531 621.015 916.857 617.251 922.917 611.865C928.978 606.478 933.575 599.644 936.28 592" stroke="#C0DBB6" stroke-width="15" stroke-linecap="round" stroke-linejoin="round"/>
</g>
<g opacity="0.5" clip-path="url(#clip42_139_1237)">
<path d="M1120.67 533.333V565.333H1088.67" stroke="#C0DBB6" stroke-width="15" stroke-linecap="round" stroke-linejoin="round"/>
<path d="M1003.33 618.667V586.667H1035.33" stroke="#C0DBB6" stroke-width="15" stroke-linecap="round" stroke-linejoin="round"/>
<path d="M1016.72 560C1019.42 552.356 1024.02 545.522 1030.08 540.136C1036.14 534.749 1043.47 530.985 1051.38 529.196C1059.29 527.407 1067.52 527.65 1075.31 529.903C1083.1 532.156 1090.19 536.345 1095.92 542.08L1120.67 565.333M1003.33 586.667L1028.08 609.92C1033.81 615.655 1040.9 619.844 1048.69 622.097C1056.48 624.35 1064.71 624.593 1072.62 622.804C1080.53 621.015 1087.86 617.251 1093.92 611.865C1099.98 606.478 1104.57 599.644 1107.28 592" stroke="#C0DBB6" stroke-width="15" stroke-linecap="round" stroke-linejoin="round"/>
</g>
<g opacity="0.5" clip-path="url(#clip43_139_1237)">
<path d="M1291.67 533.333V565.333H1259.67" stroke="#C0DBB6" stroke-width="15" stroke-linecap="round" stroke-linejoin="round"/>
<path d="M1174.33 618.667V586.667H1206.33" stroke="#C0DBB6" stroke-width="15" stroke-linecap="round" stroke-linejoin="round"/>
<path d="M1187.72 560C1190.42 552.356 1195.02 545.522 1201.08 540.136C1207.14 534.749 1214.47 530.985 1222.38 529.196C1230.29 527.407 1238.52 527.65 1246.31 529.903C1254.1 532.156 1261.19 536.345 1266.92 542.08L1291.67 565.333M1174.33 586.667L1199.08 609.92C1204.81 615.655 1211.9 619.844 1219.69 622.097C1227.48 624.35 1235.71 624.593 1243.62 622.804C1251.53 621.015 1258.86 617.251 1264.92 611.865C1270.98 606.478 1275.57 599.644 1278.28 592" stroke="#C0DBB6" stroke-width="15" stroke-linecap="round" stroke-linejoin="round"/>
</g>
<g opacity="0.5" clip-path="url(#clip44_139_1237)">
<path d="M1462.67 533.333V565.333H1430.67" stroke="#C0DBB6" stroke-width="15" stroke-linecap="round" stroke-linejoin="round"/>
<path d="M1345.33 618.667V586.667H1377.33" stroke="#C0DBB6" stroke-width="15" stroke-linecap="round" stroke-linejoin="round"/>
<path d="M1358.72 560C1361.42 552.356 1366.02 545.522 1372.08 540.136C1378.14 534.749 1385.47 530.985 1393.38 529.196C1401.29 527.407 1409.52 527.65 1417.31 529.903C1425.1 532.156 1432.19 536.345 1437.92 542.08L1462.67 565.333M1345.33 586.667L1370.08 609.92C1375.81 615.655 1382.9 619.844 1390.69 622.097C1398.48 624.35 1406.71 624.593 1414.62 622.804C1422.53 621.015 1429.86 617.251 1435.92 611.865C1441.98 606.478 1446.57 599.644 1449.28 592" stroke="#C0DBB6" stroke-width="15" stroke-linecap="round" stroke-linejoin="round"/>
</g>
<g opacity="0.5" clip-path="url(#clip45_139_1237)">
<path d="M94.667 661.333V693.333H62.667" stroke="#C0DBB6" stroke-width="15" stroke-linecap="round" stroke-linejoin="round"/>
<path d="M-22.667 746.667V714.667H9.33301" stroke="#C0DBB6" stroke-width="15" stroke-linecap="round" stroke-linejoin="round"/>
<path d="M-9.28033 688C-6.57543 680.356 -1.97828 673.522 4.08216 668.136C10.1426 662.749 17.4688 658.985 25.3772 657.196C33.2856 655.407 41.5184 655.65 49.3074 657.903C57.0964 660.156 64.1877 664.345 69.9197 670.08L94.6663 693.333M-22.667 714.667L2.07967 737.92C7.81166 743.655 14.903 747.844 22.692 750.097C30.481 752.35 38.7138 752.593 46.6221 750.804C54.5305 749.015 61.8567 745.251 67.9172 739.865C73.9776 734.478 78.5748 727.644 81.2797 720" stroke="#C0DBB6" stroke-width="15" stroke-linecap="round" stroke-linejoin="round"/>
</g>
<g opacity="0.5" clip-path="url(#clip46_139_1237)">
<path d="M265.667 661.333V693.333H233.667" stroke="#C0DBB6" stroke-width="15" stroke-linecap="round" stroke-linejoin="round"/>
<path d="M148.333 746.667V714.667H180.333" stroke="#C0DBB6" stroke-width="15" stroke-linecap="round" stroke-linejoin="round"/>
<path d="M161.72 688C164.425 680.356 169.022 673.522 175.082 668.136C181.143 662.749 188.469 658.985 196.377 657.196C204.286 655.407 212.518 655.65 220.307 657.903C228.096 660.156 235.188 664.345 240.92 670.08L265.666 693.333M148.333 714.667L173.08 737.92C178.812 743.655 185.903 747.844 193.692 750.097C201.481 752.35 209.714 752.593 217.622 750.804C225.531 749.015 232.857 745.251 238.917 739.865C244.978 734.478 249.575 727.644 252.28 720" stroke="#C0DBB6" stroke-width="15" stroke-linecap="round" stroke-linejoin="round"/>
</g>
<g opacity="0.5" clip-path="url(#clip47_139_1237)">
<path d="M436.667 661.333V693.333H404.667" stroke="#C0DBB6" stroke-width="15" stroke-linecap="round" stroke-linejoin="round"/>
<path d="M319.333 746.667V714.667H351.333" stroke="#C0DBB6" stroke-width="15" stroke-linecap="round" stroke-linejoin="round"/>
<path d="M332.72 688C335.425 680.356 340.022 673.522 346.082 668.136C352.143 662.749 359.469 658.985 367.377 657.196C375.286 655.407 383.518 655.65 391.307 657.903C399.096 660.156 406.188 664.345 411.92 670.08L436.666 693.333M319.333 714.667L344.08 737.92C349.812 743.655 356.903 747.844 364.692 750.097C372.481 752.35 380.714 752.593 388.622 750.804C396.531 749.015 403.857 745.251 409.917 739.865C415.978 734.478 420.575 727.644 423.28 720" stroke="#C0DBB6" stroke-width="15" stroke-linecap="round" stroke-linejoin="round"/>
</g>
<g opacity="0.5" clip-path="url(#clip48_139_1237)">
<path d="M607.667 661.333V693.333H575.667" stroke="#C0DBB6" stroke-width="15" stroke-linecap="round" stroke-linejoin="round"/>
<path d="M490.333 746.667V714.667H522.333" stroke="#C0DBB6" stroke-width="15" stroke-linecap="round" stroke-linejoin="round"/>
<path d="M503.72 688C506.425 680.356 511.022 673.522 517.082 668.136C523.143 662.749 530.469 658.985 538.377 657.196C546.286 655.407 554.518 655.65 562.307 657.903C570.096 660.156 577.188 664.345 582.92 670.08L607.666 693.333M490.333 714.667L515.08 737.92C520.812 743.655 527.903 747.844 535.692 750.097C543.481 752.35 551.714 752.593 559.622 750.804C567.531 749.015 574.857 745.251 580.917 739.865C586.978 734.478 591.575 727.644 594.28 720" stroke="#C0DBB6" stroke-width="15" stroke-linecap="round" stroke-linejoin="round"/>
</g>
<g opacity="0.5" clip-path="url(#clip49_139_1237)">
<path d="M778.667 661.333V693.333H746.667" stroke="#C0DBB6" stroke-width="15" stroke-linecap="round" stroke-linejoin="round"/>
<path d="M661.333 746.667V714.667H693.333" stroke="#C0DBB6" stroke-width="15" stroke-linecap="round" stroke-linejoin="round"/>
<path d="M674.72 688C677.425 680.356 682.022 673.522 688.082 668.136C694.143 662.749 701.469 658.985 709.377 657.196C717.286 655.407 725.518 655.65 733.307 657.903C741.096 660.156 748.188 664.345 753.92 670.08L778.666 693.333M661.333 714.667L686.08 737.92C691.812 743.655 698.903 747.844 706.692 750.097C714.481 752.35 722.714 752.593 730.622 750.804C738.531 749.015 745.857 745.251 751.917 739.865C757.978 734.478 762.575 727.644 765.28 720" stroke="#C0DBB6" stroke-width="15" stroke-linecap="round" stroke-linejoin="round"/>
</g>
<g opacity="0.5" clip-path="url(#clip50_139_1237)">
<path d="M949.667 661.333V693.333H917.667" stroke="#C0DBB6" stroke-width="15" stroke-linecap="round" stroke-linejoin="round"/>
<path d="M832.333 746.667V714.667H864.333" stroke="#C0DBB6" stroke-width="15" stroke-linecap="round" stroke-linejoin="round"/>
<path d="M845.72 688C848.425 680.356 853.022 673.522 859.082 668.136C865.143 662.749 872.469 658.985 880.377 657.196C888.286 655.407 896.518 655.65 904.307 657.903C912.096 660.156 919.188 664.345 924.92 670.08L949.666 693.333M832.333 714.667L857.08 737.92C862.812 743.655 869.903 747.844 877.692 750.097C885.481 752.35 893.714 752.593 901.622 750.804C909.531 749.015 916.857 745.251 922.917 739.865C928.978 734.478 933.575 727.644 936.28 720" stroke="#C0DBB6" stroke-width="15" stroke-linecap="round" stroke-linejoin="round"/>
</g>
<g opacity="0.5" clip-path="url(#clip51_139_1237)">
<path d="M1120.67 661.333V693.333H1088.67" stroke="#C0DBB6" stroke-width="15" stroke-linecap="round" stroke-linejoin="round"/>
<path d="M1003.33 746.667V714.667H1035.33" stroke="#C0DBB6" stroke-width="15" stroke-linecap="round" stroke-linejoin="round"/>
<path d="M1016.72 688C1019.42 680.356 1024.02 673.522 1030.08 668.136C1036.14 662.749 1043.47 658.985 1051.38 657.196C1059.29 655.407 1067.52 655.65 1075.31 657.903C1083.1 660.156 1090.19 664.345 1095.92 670.08L1120.67 693.333M1003.33 714.667L1028.08 737.92C1033.81 743.655 1040.9 747.844 1048.69 750.097C1056.48 752.35 1064.71 752.593 1072.62 750.804C1080.53 749.015 1087.86 745.251 1093.92 739.865C1099.98 734.478 1104.57 727.644 1107.28 720" stroke="#C0DBB6" stroke-width="15" stroke-linecap="round" stroke-linejoin="round"/>
</g>
<g opacity="0.5" clip-path="url(#clip52_139_1237)">
<path d="M1291.67 661.333V693.333H1259.67" stroke="#C0DBB6" stroke-width="15" stroke-linecap="round" stroke-linejoin="round"/>
<path d="M1174.33 746.667V714.667H1206.33" stroke="#C0DBB6" stroke-width="15" stroke-linecap="round" stroke-linejoin="round"/>
<path d="M1187.72 688C1190.42 680.356 1195.02 673.522 1201.08 668.136C1207.14 662.749 1214.47 658.985 1222.38 657.196C1230.29 655.407 1238.52 655.65 1246.31 657.903C1254.1 660.156 1261.19 664.345 1266.92 670.08L1291.67 693.333M1174.33 714.667L1199.08 737.92C1204.81 743.655 1211.9 747.844 1219.69 750.097C1227.48 752.35 1235.71 752.593 1243.62 750.804C1251.53 749.015 1258.86 745.251 1264.92 739.865C1270.98 734.478 1275.57 727.644 1278.28 720" stroke="#C0DBB6" stroke-width="15" stroke-linecap="round" stroke-linejoin="round"/>
</g>
<g opacity="0.5" clip-path="url(#clip53_139_1237)">
<path d="M1462.67 661.333V693.333H1430.67" stroke="#C0DBB6" stroke-width="15" stroke-linecap="round" stroke-linejoin="round"/>
<path d="M1345.33 746.667V714.667H1377.33" stroke="#C0DBB6" stroke-width="15" stroke-linecap="round" stroke-linejoin="round"/>
<path d="M1358.72 688C1361.42 680.356 1366.02 673.522 1372.08 668.136C1378.14 662.749 1385.47 658.985 1393.38 657.196C1401.29 655.407 1409.52 655.65 1417.31 657.903C1425.1 660.156 1432.19 664.345 1437.92 670.08L1462.67 693.333M1345.33 714.667L1370.08 737.92C1375.81 743.655 1382.9 747.844 1390.69 750.097C1398.48 752.35 1406.71 752.593 1414.62 750.804C1422.53 749.015 1429.86 745.251 1435.92 739.865C1441.98 734.478 1446.57 727.644 1449.28 720" stroke="#C0DBB6" stroke-width="15" stroke-linecap="round" stroke-linejoin="round"/>
</g>
<g opacity="0.5" clip-path="url(#clip54_139_1237)">
<path d="M94.667 789.333V821.333H62.667" stroke="#C0DBB6" stroke-width="15" stroke-linecap="round" stroke-linejoin="round"/>
<path d="M-22.667 874.667V842.667H9.33301" stroke="#C0DBB6" stroke-width="15" stroke-linecap="round" stroke-linejoin="round"/>
<path d="M-9.28033 816C-6.57543 808.356 -1.97828 801.522 4.08216 796.136C10.1426 790.749 17.4688 786.985 25.3772 785.196C33.2856 783.407 41.5184 783.65 49.3074 785.903C57.0964 788.156 64.1877 792.345 69.9197 798.08L94.6663 821.333M-22.667 842.667L2.07967 865.92C7.81166 871.655 14.903 875.844 22.692 878.097C30.481 880.35 38.7138 880.593 46.6221 878.804C54.5305 877.015 61.8567 873.251 67.9172 867.865C73.9776 862.478 78.5748 855.644 81.2797 848" stroke="#C0DBB6" stroke-width="15" stroke-linecap="round" stroke-linejoin="round"/>
</g>
<g opacity="0.5" clip-path="url(#clip55_139_1237)">
<path d="M265.667 789.333V821.333H233.667" stroke="#C0DBB6" stroke-width="15" stroke-linecap="round" stroke-linejoin="round"/>
<path d="M148.333 874.667V842.667H180.333" stroke="#C0DBB6" stroke-width="15" stroke-linecap="round" stroke-linejoin="round"/>
<path d="M161.72 816C164.425 808.356 169.022 801.522 175.082 796.136C181.143 790.749 188.469 786.985 196.377 785.196C204.286 783.407 212.518 783.65 220.307 785.903C228.096 788.156 235.188 792.345 240.92 798.08L265.666 821.333M148.333 842.667L173.08 865.92C178.812 871.655 185.903 875.844 193.692 878.097C201.481 880.35 209.714 880.593 217.622 878.804C225.531 877.015 232.857 873.251 238.917 867.865C244.978 862.478 249.575 855.644 252.28 848" stroke="#C0DBB6" stroke-width="15" stroke-linecap="round" stroke-linejoin="round"/>
</g>
<g opacity="0.5" clip-path="url(#clip56_139_1237)">
<path d="M436.667 789.333V821.333H404.667" stroke="#C0DBB6" stroke-width="15" stroke-linecap="round" stroke-linejoin="round"/>
<path d="M319.333 874.667V842.667H351.333" stroke="#C0DBB6" stroke-width="15" stroke-linecap="round" stroke-linejoin="round"/>
<path d="M332.72 816C335.425 808.356 340.022 801.522 346.082 796.136C352.143 790.749 359.469 786.985 367.377 785.196C375.286 783.407 383.518 783.65 391.307 785.903C399.096 788.156 406.188 792.345 411.92 798.08L436.666 821.333M319.333 842.667L344.08 865.92C349.812 871.655 356.903 875.844 364.692 878.097C372.481 880.35 380.714 880.593 388.622 878.804C396.531 877.015 403.857 873.251 409.917 867.865C415.978 862.478 420.575 855.644 423.28 848" stroke="#C0DBB6" stroke-width="15" stroke-linecap="round" stroke-linejoin="round"/>
</g>
<g opacity="0.5" clip-path="url(#clip57_139_1237)">
<path d="M607.667 789.333V821.333H575.667" stroke="#C0DBB6" stroke-width="15" stroke-linecap="round" stroke-linejoin="round"/>
<path d="M490.333 874.667V842.667H522.333" stroke="#C0DBB6" stroke-width="15" stroke-linecap="round" stroke-linejoin="round"/>
<path d="M503.72 816C506.425 808.356 511.022 801.522 517.082 796.136C523.143 790.749 530.469 786.985 538.377 785.196C546.286 783.407 554.518 783.65 562.307 785.903C570.096 788.156 577.188 792.345 582.92 798.08L607.666 821.333M490.333 842.667L515.08 865.92C520.812 871.655 527.903 875.844 535.692 878.097C543.481 880.35 551.714 880.593 559.622 878.804C567.531 877.015 574.857 873.251 580.917 867.865C586.978 862.478 591.575 855.644 594.28 848" stroke="#C0DBB6" stroke-width="15" stroke-linecap="round" stroke-linejoin="round"/>
</g>
<g opacity="0.5" clip-path="url(#clip58_139_1237)">
<path d="M778.667 789.333V821.333H746.667" stroke="#C0DBB6" stroke-width="15" stroke-linecap="round" stroke-linejoin="round"/>
<path d="M661.333 874.667V842.667H693.333" stroke="#C0DBB6" stroke-width="15" stroke-linecap="round" stroke-linejoin="round"/>
<path d="M674.72 816C677.425 808.356 682.022 801.522 688.082 796.136C694.143 790.749 701.469 786.985 709.377 785.196C717.286 783.407 725.518 783.65 733.307 785.903C741.096 788.156 748.188 792.345 753.92 798.08L778.666 821.333M661.333 842.667L686.08 865.92C691.812 871.655 698.903 875.844 706.692 878.097C714.481 880.35 722.714 880.593 730.622 878.804C738.531 877.015 745.857 873.251 751.917 867.865C757.978 862.478 762.575 855.644 765.28 848" stroke="#C0DBB6" stroke-width="15" stroke-linecap="round" stroke-linejoin="round"/>
</g>
<g opacity="0.5" clip-path="url(#clip59_139_1237)">
<path d="M949.667 789.333V821.333H917.667" stroke="#C0DBB6" stroke-width="15" stroke-linecap="round" stroke-linejoin="round"/>
<path d="M832.333 874.667V842.667H864.333" stroke="#C0DBB6" stroke-width="15" stroke-linecap="round" stroke-linejoin="round"/>
<path d="M845.72 816C848.425 808.356 853.022 801.522 859.082 796.136C865.143 790.749 872.469 786.985 880.377 785.196C888.286 783.407 896.518 783.65 904.307 785.903C912.096 788.156 919.188 792.345 924.92 798.08L949.666 821.333M832.333 842.667L857.08 865.92C862.812 871.655 869.903 875.844 877.692 878.097C885.481 880.35 893.714 880.593 901.622 878.804C909.531 877.015 916.857 873.251 922.917 867.865C928.978 862.478 933.575 855.644 936.28 848" stroke="#C0DBB6" stroke-width="15" stroke-linecap="round" stroke-linejoin="round"/>
</g>
<g opacity="0.5" clip-path="url(#clip60_139_1237)">
<path d="M1120.67 789.333V821.333H1088.67" stroke="#C0DBB6" stroke-width="15" stroke-linecap="round" stroke-linejoin="round"/>
<path d="M1003.33 874.667V842.667H1035.33" stroke="#C0DBB6" stroke-width="15" stroke-linecap="round" stroke-linejoin="round"/>
<path d="M1016.72 816C1019.42 808.356 1024.02 801.522 1030.08 796.136C1036.14 790.749 1043.47 786.985 1051.38 785.196C1059.29 783.407 1067.52 783.65 1075.31 785.903C1083.1 788.156 1090.19 792.345 1095.92 798.08L1120.67 821.333M1003.33 842.667L1028.08 865.92C1033.81 871.655 1040.9 875.844 1048.69 878.097C1056.48 880.35 1064.71 880.593 1072.62 878.804C1080.53 877.015 1087.86 873.251 1093.92 867.865C1099.98 862.478 1104.57 855.644 1107.28 848" stroke="#C0DBB6" stroke-width="15" stroke-linecap="round" stroke-linejoin="round"/>
</g>
<g opacity="0.5" clip-path="url(#clip61_139_1237)">
<path d="M1291.67 789.333V821.333H1259.67" stroke="#C0DBB6" stroke-width="15" stroke-linecap="round" stroke-linejoin="round"/>
<path d="M1174.33 874.667V842.667H1206.33" stroke="#C0DBB6" stroke-width="15" stroke-linecap="round" stroke-linejoin="round"/>
<path d="M1187.72 816C1190.42 808.356 1195.02 801.522 1201.08 796.136C1207.14 790.749 1214.47 786.985 1222.38 785.196C1230.29 783.407 1238.52 783.65 1246.31 785.903C1254.1 788.156 1261.19 792.345 1266.92 798.08L1291.67 821.333M1174.33 842.667L1199.08 865.92C1204.81 871.655 1211.9 875.844 1219.69 878.097C1227.48 880.35 1235.71 880.593 1243.62 878.804C1251.53 877.015 1258.86 873.251 1264.92 867.865C1270.98 862.478 1275.57 855.644 1278.28 848" stroke="#C0DBB6" stroke-width="15" stroke-linecap="round" stroke-linejoin="round"/>
</g>
<g opacity="0.5" clip-path="url(#clip62_139_1237)">
<path d="M1462.67 789.333V821.333H1430.67" stroke="#C0DBB6" stroke-width="15" stroke-linecap="round" stroke-linejoin="round"/>
<path d="M1345.33 874.667V842.667H1377.33" stroke="#C0DBB6" stroke-width="15" stroke-linecap="round" stroke-linejoin="round"/>
<path d="M1358.72 816C1361.42 808.356 1366.02 801.522 1372.08 796.136C1378.14 790.749 1385.47 786.985 1393.38 785.196C1401.29 783.407 1409.52 783.65 1417.31 785.903C1425.1 788.156 1432.19 792.345 1437.92 798.08L1462.67 821.333M1345.33 842.667L1370.08 865.92C1375.81 871.655 1382.9 875.844 1390.69 878.097C1398.48 880.35 1406.71 880.593 1414.62 878.804C1422.53 877.015 1429.86 873.251 1435.92 867.865C1441.98 862.478 1446.57 855.644 1449.28 848" stroke="#C0DBB6" stroke-width="15" stroke-linecap="round" stroke-linejoin="round"/>
</g>
<g opacity="0.5" clip-path="url(#clip63_139_1237)">
<path d="M89.667 917.333V949.333H57.667" stroke="#C0DBB6" stroke-width="15" stroke-linecap="round" stroke-linejoin="round"/>
<path d="M-27.667 1002.67V970.667H4.33301" stroke="#C0DBB6" stroke-width="15" stroke-linecap="round" stroke-linejoin="round"/>
<path d="M-14.2803 944C-11.5754 936.356 -6.97828 929.522 -0.917836 924.136C5.14261 918.749 12.4688 914.985 20.3772 913.196C28.2856 911.407 36.5184 911.65 44.3074 913.903C52.0964 916.156 59.1877 920.345 64.9197 926.08L89.6663 949.333M-27.667 970.667L-2.92033 993.92C2.81166 999.655 9.903 1003.84 17.692 1006.1C25.481 1008.35 33.7138 1008.59 41.6221 1006.8C49.5305 1005.01 56.8567 1001.25 62.9172 995.865C68.9776 990.478 73.5748 983.644 76.2797 976" stroke="#C0DBB6" stroke-width="15" stroke-linecap="round" stroke-linejoin="round"/>
</g>
<g opacity="0.5" clip-path="url(#clip64_139_1237)">
<path d="M260.667 917.333V949.333H228.667" stroke="#C0DBB6" stroke-width="15" stroke-linecap="round" stroke-linejoin="round"/>
<path d="M143.333 1002.67V970.667H175.333" stroke="#C0DBB6" stroke-width="15" stroke-linecap="round" stroke-linejoin="round"/>
<path d="M156.72 944C159.425 936.356 164.022 929.522 170.082 924.136C176.143 918.749 183.469 914.985 191.377 913.196C199.286 911.407 207.518 911.65 215.307 913.903C223.096 916.156 230.188 920.345 235.92 926.08L260.666 949.333M143.333 970.667L168.08 993.92C173.812 999.655 180.903 1003.84 188.692 1006.1C196.481 1008.35 204.714 1008.59 212.622 1006.8C220.531 1005.01 227.857 1001.25 233.917 995.865C239.978 990.478 244.575 983.644 247.28 976" stroke="#C0DBB6" stroke-width="15" stroke-linecap="round" stroke-linejoin="round"/>
</g>
<g opacity="0.5" clip-path="url(#clip65_139_1237)">
<path d="M431.667 917.333V949.333H399.667" stroke="#C0DBB6" stroke-width="15" stroke-linecap="round" stroke-linejoin="round"/>
<path d="M314.333 1002.67V970.667H346.333" stroke="#C0DBB6" stroke-width="15" stroke-linecap="round" stroke-linejoin="round"/>
<path d="M327.72 944C330.425 936.356 335.022 929.522 341.082 924.136C347.143 918.749 354.469 914.985 362.377 913.196C370.286 911.407 378.518 911.65 386.307 913.903C394.096 916.156 401.188 920.345 406.92 926.08L431.666 949.333M314.333 970.667L339.08 993.92C344.812 999.655 351.903 1003.84 359.692 1006.1C367.481 1008.35 375.714 1008.59 383.622 1006.8C391.531 1005.01 398.857 1001.25 404.917 995.865C410.978 990.478 415.575 983.644 418.28 976" stroke="#C0DBB6" stroke-width="15" stroke-linecap="round" stroke-linejoin="round"/>
</g>
<g opacity="0.5" clip-path="url(#clip66_139_1237)">
<path d="M602.667 917.333V949.333H570.667" stroke="#C0DBB6" stroke-width="15" stroke-linecap="round" stroke-linejoin="round"/>
<path d="M485.333 1002.67V970.667H517.333" stroke="#C0DBB6" stroke-width="15" stroke-linecap="round" stroke-linejoin="round"/>
<path d="M498.72 944C501.425 936.356 506.022 929.522 512.082 924.136C518.143 918.749 525.469 914.985 533.377 913.196C541.286 911.407 549.518 911.65 557.307 913.903C565.096 916.156 572.188 920.345 577.92 926.08L602.666 949.333M485.333 970.667L510.08 993.92C515.812 999.655 522.903 1003.84 530.692 1006.1C538.481 1008.35 546.714 1008.59 554.622 1006.8C562.531 1005.01 569.857 1001.25 575.917 995.865C581.978 990.478 586.575 983.644 589.28 976" stroke="#C0DBB6" stroke-width="15" stroke-linecap="round" stroke-linejoin="round"/>
</g>
<g opacity="0.5" clip-path="url(#clip67_139_1237)">
<path d="M773.667 917.333V949.333H741.667" stroke="#C0DBB6" stroke-width="15" stroke-linecap="round" stroke-linejoin="round"/>
<path d="M656.333 1002.67V970.667H688.333" stroke="#C0DBB6" stroke-width="15" stroke-linecap="round" stroke-linejoin="round"/>
<path d="M669.72 944C672.425 936.356 677.022 929.522 683.082 924.136C689.143 918.749 696.469 914.985 704.377 913.196C712.286 911.407 720.518 911.65 728.307 913.903C736.096 916.156 743.188 920.345 748.92 926.08L773.666 949.333M656.333 970.667L681.08 993.92C686.812 999.655 693.903 1003.84 701.692 1006.1C709.481 1008.35 717.714 1008.59 725.622 1006.8C733.531 1005.01 740.857 1001.25 746.917 995.865C752.978 990.478 757.575 983.644 760.28 976" stroke="#C0DBB6" stroke-width="15" stroke-linecap="round" stroke-linejoin="round"/>
</g>
<g opacity="0.5" clip-path="url(#clip68_139_1237)">
<path d="M944.667 917.333V949.333H912.667" stroke="#C0DBB6" stroke-width="15" stroke-linecap="round" stroke-linejoin="round"/>
<path d="M827.333 1002.67V970.667H859.333" stroke="#C0DBB6" stroke-width="15" stroke-linecap="round" stroke-linejoin="round"/>
<path d="M840.72 944C843.425 936.356 848.022 929.522 854.082 924.136C860.143 918.749 867.469 914.985 875.377 913.196C883.286 911.407 891.518 911.65 899.307 913.903C907.096 916.156 914.188 920.345 919.92 926.08L944.666 949.333M827.333 970.667L852.08 993.92C857.812 999.655 864.903 1003.84 872.692 1006.1C880.481 1008.35 888.714 1008.59 896.622 1006.8C904.531 1005.01 911.857 1001.25 917.917 995.865C923.978 990.478 928.575 983.644 931.28 976" stroke="#C0DBB6" stroke-width="15" stroke-linecap="round" stroke-linejoin="round"/>
</g>
<g opacity="0.5" clip-path="url(#clip69_139_1237)">
<path d="M1115.67 917.333V949.333H1083.67" stroke="#C0DBB6" stroke-width="15" stroke-linecap="round" stroke-linejoin="round"/>
<path d="M998.333 1002.67V970.667H1030.33" stroke="#C0DBB6" stroke-width="15" stroke-linecap="round" stroke-linejoin="round"/>
<path d="M1011.72 944C1014.42 936.356 1019.02 929.522 1025.08 924.136C1031.14 918.749 1038.47 914.985 1046.38 913.196C1054.29 911.407 1062.52 911.65 1070.31 913.903C1078.1 916.156 1085.19 920.345 1090.92 926.08L1115.67 949.333M998.333 970.667L1023.08 993.92C1028.81 999.655 1035.9 1003.84 1043.69 1006.1C1051.48 1008.35 1059.71 1008.59 1067.62 1006.8C1075.53 1005.01 1082.86 1001.25 1088.92 995.865C1094.98 990.478 1099.57 983.644 1102.28 976" stroke="#C0DBB6" stroke-width="15" stroke-linecap="round" stroke-linejoin="round"/>
</g>
<g opacity="0.5" clip-path="url(#clip70_139_1237)">
<path d="M1286.67 917.333V949.333H1254.67" stroke="#C0DBB6" stroke-width="15" stroke-linecap="round" stroke-linejoin="round"/>
<path d="M1169.33 1002.67V970.667H1201.33" stroke="#C0DBB6" stroke-width="15" stroke-linecap="round" stroke-linejoin="round"/>
<path d="M1182.72 944C1185.42 936.356 1190.02 929.522 1196.08 924.136C1202.14 918.749 1209.47 914.985 1217.38 913.196C1225.29 911.407 1233.52 911.65 1241.31 913.903C1249.1 916.156 1256.19 920.345 1261.92 926.08L1286.67 949.333M1169.33 970.667L1194.08 993.92C1199.81 999.655 1206.9 1003.84 1214.69 1006.1C1222.48 1008.35 1230.71 1008.59 1238.62 1006.8C1246.53 1005.01 1253.86 1001.25 1259.92 995.865C1265.98 990.478 1270.57 983.644 1273.28 976" stroke="#C0DBB6" stroke-width="15" stroke-linecap="round" stroke-linejoin="round"/>
</g>
<g opacity="0.5" clip-path="url(#clip71_139_1237)">
<path d="M1457.67 917.333V949.333H1425.67" stroke="#C0DBB6" stroke-width="15" stroke-linecap="round" stroke-linejoin="round"/>
<path d="M1340.33 1002.67V970.667H1372.33" stroke="#C0DBB6" stroke-width="15" stroke-linecap="round" stroke-linejoin="round"/>
<path d="M1353.72 944C1356.42 936.356 1361.02 929.522 1367.08 924.136C1373.14 918.749 1380.47 914.985 1388.38 913.196C1396.29 911.407 1404.52 911.65 1412.31 913.903C1420.1 916.156 1427.19 920.345 1432.92 926.08L1457.67 949.333M1340.33 970.667L1365.08 993.92C1370.81 999.655 1377.9 1003.84 1385.69 1006.1C1393.48 1008.35 1401.71 1008.59 1409.62 1006.8C1417.53 1005.01 1424.86 1001.25 1430.92 995.865C1436.98 990.478 1441.57 983.644 1444.28 976" stroke="#C0DBB6" stroke-width="15" stroke-linecap="round" stroke-linejoin="round"/>
</g>
<defs>
<clipPath id="clip0_139_1237">
<rect width="128" height="128" fill="white" transform="translate(-23)"/>
</clipPath>
<clipPath id="clip1_139_1237">
<rect width="128" height="128" fill="white" transform="translate(148)"/>
</clipPath>
<clipPath id="clip2_139_1237">
<rect width="128" height="128" fill="white" transform="translate(319)"/>
</clipPath>
<clipPath id="clip3_139_1237">
<rect width="128" height="128" fill="white" transform="translate(490)"/>
</clipPath>
<clipPath id="clip4_139_1237">
<rect width="128" height="128" fill="white" transform="translate(661)"/>
</clipPath>
<clipPath id="clip5_139_1237">
<rect width="128" height="128" fill="white" transform="translate(832)"/>
</clipPath>
<clipPath id="clip6_139_1237">
<rect width="128" height="128" fill="white" transform="translate(1003)"/>
</clipPath>
<clipPath id="clip7_139_1237">
<rect width="128" height="128" fill="white" transform="translate(1174)"/>
</clipPath>
<clipPath id="clip8_139_1237">
<rect width="128" height="128" fill="white" transform="translate(1345)"/>
</clipPath>
<clipPath id="clip9_139_1237">
<rect width="128" height="128" fill="white" transform="translate(-28 128)"/>
</clipPath>
<clipPath id="clip10_139_1237">
<rect width="128" height="128" fill="white" transform="translate(143 128)"/>
</clipPath>
<clipPath id="clip11_139_1237">
<rect width="128" height="128" fill="white" transform="translate(314 128)"/>
</clipPath>
<clipPath id="clip12_139_1237">
<rect width="128" height="128" fill="white" transform="translate(485 128)"/>
</clipPath>
<clipPath id="clip13_139_1237">
<rect width="128" height="128" fill="white" transform="translate(656 128)"/>
</clipPath>
<clipPath id="clip14_139_1237">
<rect width="128" height="128" fill="white" transform="translate(827 128)"/>
</clipPath>
<clipPath id="clip15_139_1237">
<rect width="128" height="128" fill="white" transform="translate(998 128)"/>
</clipPath>
<clipPath id="clip16_139_1237">
<rect width="128" height="128" fill="white" transform="translate(1169 128)"/>
</clipPath>
<clipPath id="clip17_139_1237">
<rect width="128" height="128" fill="white" transform="translate(1340 128)"/>
</clipPath>
<clipPath id="clip18_139_1237">
<rect width="128" height="128" fill="white" transform="translate(-28 256)"/>
</clipPath>
<clipPath id="clip19_139_1237">
<rect width="128" height="128" fill="white" transform="translate(143 256)"/>
</clipPath>
<clipPath id="clip20_139_1237">
<rect width="128" height="128" fill="white" transform="translate(314 256)"/>
</clipPath>
<clipPath id="clip21_139_1237">
<rect width="128" height="128" fill="white" transform="translate(485 256)"/>
</clipPath>
<clipPath id="clip22_139_1237">
<rect width="128" height="128" fill="white" transform="translate(656 256)"/>
</clipPath>
<clipPath id="clip23_139_1237">
<rect width="128" height="128" fill="white" transform="translate(827 256)"/>
</clipPath>
<clipPath id="clip24_139_1237">
<rect width="128" height="128" fill="white" transform="translate(998 256)"/>
</clipPath>
<clipPath id="clip25_139_1237">
<rect width="128" height="128" fill="white" transform="translate(1169 256)"/>
</clipPath>
<clipPath id="clip26_139_1237">
<rect width="128" height="128" fill="white" transform="translate(1340 256)"/>
</clipPath>
<clipPath id="clip27_139_1237">
<rect width="128" height="128" fill="white" transform="translate(-23 384)"/>
</clipPath>
<clipPath id="clip28_139_1237">
<rect width="128" height="128" fill="white" transform="translate(148 384)"/>
</clipPath>
<clipPath id="clip29_139_1237">
<rect width="128" height="128" fill="white" transform="translate(319 384)"/>
</clipPath>
<clipPath id="clip30_139_1237">
<rect width="128" height="128" fill="white" transform="translate(490 384)"/>
</clipPath>
<clipPath id="clip31_139_1237">
<rect width="128" height="128" fill="white" transform="translate(661 384)"/>
</clipPath>
<clipPath id="clip32_139_1237">
<rect width="128" height="128" fill="white" transform="translate(832 384)"/>
</clipPath>
<clipPath id="clip33_139_1237">
<rect width="128" height="128" fill="white" transform="translate(1003 384)"/>
</clipPath>
<clipPath id="clip34_139_1237">
<rect width="128" height="128" fill="white" transform="translate(1174 384)"/>
</clipPath>
<clipPath id="clip35_139_1237">
<rect width="128" height="128" fill="white" transform="translate(1345 384)"/>
</clipPath>
<clipPath id="clip36_139_1237">
<rect width="128" height="128" fill="white" transform="translate(-28 512)"/>
</clipPath>
<clipPath id="clip37_139_1237">
<rect width="128" height="128" fill="white" transform="translate(143 512)"/>
</clipPath>
<clipPath id="clip38_139_1237">
<rect width="128" height="128" fill="white" transform="translate(314 512)"/>
</clipPath>
<clipPath id="clip39_139_1237">
<rect width="128" height="128" fill="white" transform="translate(485 512)"/>
</clipPath>
<clipPath id="clip40_139_1237">
<rect width="128" height="128" fill="white" transform="translate(656 512)"/>
</clipPath>
<clipPath id="clip41_139_1237">
<rect width="128" height="128" fill="white" transform="translate(827 512)"/>
</clipPath>
<clipPath id="clip42_139_1237">
<rect width="128" height="128" fill="white" transform="translate(998 512)"/>
</clipPath>
<clipPath id="clip43_139_1237">
<rect width="128" height="128" fill="white" transform="translate(1169 512)"/>
</clipPath>
<clipPath id="clip44_139_1237">
<rect width="128" height="128" fill="white" transform="translate(1340 512)"/>
</clipPath>
<clipPath id="clip45_139_1237">
<rect width="128" height="128" fill="white" transform="translate(-28 640)"/>
</clipPath>
<clipPath id="clip46_139_1237">
<rect width="128" height="128" fill="white" transform="translate(143 640)"/>
</clipPath>
<clipPath id="clip47_139_1237">
<rect width="128" height="128" fill="white" transform="translate(314 640)"/>
</clipPath>
<clipPath id="clip48_139_1237">
<rect width="128" height="128" fill="white" transform="translate(485 640)"/>
</clipPath>
<clipPath id="clip49_139_1237">
<rect width="128" height="128" fill="white" transform="translate(656 640)"/>
</clipPath>
<clipPath id="clip50_139_1237">
<rect width="128" height="128" fill="white" transform="translate(827 640)"/>
</clipPath>
<clipPath id="clip51_139_1237">
<rect width="128" height="128" fill="white" transform="translate(998 640)"/>
</clipPath>
<clipPath id="clip52_139_1237">
<rect width="128" height="128" fill="white" transform="translate(1169 640)"/>
</clipPath>
<clipPath id="clip53_139_1237">
<rect width="128" height="128" fill="white" transform="translate(1340 640)"/>
</clipPath>
<clipPath id="clip54_139_1237">
<rect width="128" height="128" fill="white" transform="translate(-28 768)"/>
</clipPath>
<clipPath id="clip55_139_1237">
<rect width="128" height="128" fill="white" transform="translate(143 768)"/>
</clipPath>
<clipPath id="clip56_139_1237">
<rect width="128" height="128" fill="white" transform="translate(314 768)"/>
</clipPath>
<clipPath id="clip57_139_1237">
<rect width="128" height="128" fill="white" transform="translate(485 768)"/>
</clipPath>
<clipPath id="clip58_139_1237">
<rect width="128" height="128" fill="white" transform="translate(656 768)"/>
</clipPath>
<clipPath id="clip59_139_1237">
<rect width="128" height="128" fill="white" transform="translate(827 768)"/>
</clipPath>
<clipPath id="clip60_139_1237">
<rect width="128" height="128" fill="white" transform="translate(998 768)"/>
</clipPath>
<clipPath id="clip61_139_1237">
<rect width="128" height="128" fill="white" transform="translate(1169 768)"/>
</clipPath>
<clipPath id="clip62_139_1237">
<rect width="128" height="128" fill="white" transform="translate(1340 768)"/>
</clipPath>
<clipPath id="clip63_139_1237">
<rect width="128" height="128" fill="white" transform="translate(-33 896)"/>
</clipPath>
<clipPath id="clip64_139_1237">
<rect width="128" height="128" fill="white" transform="translate(138 896)"/>
</clipPath>
<clipPath id="clip65_139_1237">
<rect width="128" height="128" fill="white" transform="translate(309 896)"/>
</clipPath>
<clipPath id="clip66_139_1237">
<rect width="128" height="128" fill="white" transform="translate(480 896)"/>
</clipPath>
<clipPath id="clip67_139_1237">
<rect width="128" height="128" fill="white" transform="translate(651 896)"/>
</clipPath>
<clipPath id="clip68_139_1237">
<rect width="128" height="128" fill="white" transform="translate(822 896)"/>
</clipPath>
<clipPath id="clip69_139_1237">
<rect width="128" height="128" fill="white" transform="translate(993 896)"/>
</clipPath>
<clipPath id="clip70_139_1237">
<rect width="128" height="128" fill="white" transform="translate(1164 896)"/>
</clipPath>
<clipPath id="clip71_139_1237">
<rect width="128" height="128" fill="white" transform="translate(1335 896)"/>
</clipPath>
</defs>
</svg>
