<svg width="103" height="128" viewBox="0 0 103 128" fill="none" xmlns="http://www.w3.org/2000/svg">
<path d="M0 20C0 8.95431 8.9543 0 20 0H103V108C103 119.046 94.0457 128 83 128H0V20Z" fill="white"/>
<g clip-path="url(#clip0_169_760)">
<path d="M81.976 43.0591V59.7462H65.3525" stroke="#508668" stroke-width="9" stroke-linecap="round" stroke-linejoin="round"/>
<path d="M21.0234 87.5582V70.8711H37.6469" stroke="#508668" stroke-width="9" stroke-linecap="round" stroke-linejoin="round"/>
<path d="M27.9776 56.9652C29.3827 52.9792 31.7708 49.4154 34.9191 46.6064C38.0674 43.7975 41.8733 41.8349 45.9815 40.9018C50.0898 39.9687 54.3666 40.0955 58.4128 41.2703C62.459 42.4452 66.1429 44.6298 69.1205 47.6204L81.976 59.7464M21.0234 70.8711L33.8789 82.9971C36.8565 85.9877 40.5404 88.1723 44.5866 89.3472C48.6328 90.5221 52.9096 90.6488 57.0179 89.7157C61.1261 88.7826 64.932 86.82 68.0803 84.0111C71.2286 81.2021 73.6167 77.6384 75.0218 73.6523" stroke="#508668" stroke-width="9" stroke-linecap="round" stroke-linejoin="round"/>
</g>
<defs>
<clipPath id="clip0_169_760">
<rect width="66.4937" height="66.7485" fill="white" transform="translate(18.2529 31.9346)"/>
</clipPath>
</defs>
</svg>
