<svg width="75" height="75" viewBox="0 0 75 75" fill="none" xmlns="http://www.w3.org/2000/svg">
<path d="M53.125 6.25H21.875C13.2456 6.25 6.25 13.2456 6.25 21.875V53.125C6.25 61.7544 13.2456 68.75 21.875 68.75H53.125C61.7544 68.75 68.75 61.7544 68.75 53.125V21.875C68.75 13.2456 61.7544 6.25 53.125 6.25Z" stroke="#508668" stroke-width="5" stroke-linecap="round" stroke-linejoin="round"/>
<path d="M49.9996 35.5312C50.3852 38.132 49.941 40.7881 48.7301 43.1219C47.5191 45.4556 45.6032 47.3481 43.2547 48.5302C40.9062 49.7123 38.2447 50.1237 35.6489 49.706C33.0531 49.2883 30.6551 48.0627 28.7959 46.2036C26.9368 44.3445 25.7112 41.9464 25.2935 39.3506C24.8758 36.7548 25.2873 34.0934 26.4693 31.7449C27.6514 29.3964 29.5439 27.4804 31.8777 26.2695C34.2114 25.0585 36.8676 24.6143 39.4683 25C42.1212 25.3934 44.5772 26.6295 46.4736 28.5259C48.37 30.4223 49.6062 32.8783 49.9996 35.5312Z" stroke="#508668" stroke-width="5" stroke-linecap="round" stroke-linejoin="round"/>
<path d="M54.6875 20.3125H54.7188" stroke="#508668" stroke-width="7" stroke-linecap="round" stroke-linejoin="round"/>
</svg>
