<svg width="2211" height="162" viewBox="0 0 2211 162" fill="none" xmlns="http://www.w3.org/2000/svg">
<rect x="1298" width="913" height="162" rx="81" fill="#C0DBB6"/>
<path d="M1711 80.5391C1711 84.3984 1710.28 87.625 1708.84 90.2188C1707.41 92.7969 1705.32 94.7422 1702.59 96.0547C1699.85 97.3516 1696.55 98 1692.7 98H1683.18V63.7344H1693.73C1697.27 63.7344 1700.34 64.375 1702.91 65.6562C1705.49 66.9219 1707.48 68.8047 1708.89 71.3047C1710.3 73.7891 1711 76.8672 1711 80.5391ZM1705.14 80.7031C1705.14 77.8906 1704.7 75.5781 1703.8 73.7656C1702.93 71.9531 1701.63 70.6094 1699.91 69.7344C1698.21 68.8438 1696.11 68.3984 1693.61 68.3984H1688.8V93.2891H1692.79C1696.93 93.2891 1700.02 92.2344 1702.07 90.125C1704.12 88.0156 1705.14 84.875 1705.14 80.7031ZM1723.33 72.0547V98H1717.82V72.0547H1723.33ZM1720.61 62.1172C1721.45 62.1172 1722.18 62.3438 1722.79 62.7969C1723.41 63.25 1723.73 64.0312 1723.73 65.1406C1723.73 66.2344 1723.41 67.0156 1722.79 67.4844C1722.18 67.9375 1721.45 68.1641 1720.61 68.1641C1719.73 68.1641 1718.99 67.9375 1718.38 67.4844C1717.79 67.0156 1717.49 66.2344 1717.49 65.1406C1717.49 64.0312 1717.79 63.25 1718.38 62.7969C1718.99 62.3438 1719.73 62.1172 1720.61 62.1172ZM1744.19 76.25H1737.88V98H1732.38V76.25H1728.13V73.6016L1732.38 71.9844V70.1797C1732.38 67.9766 1732.72 66.2266 1733.41 64.9297C1734.11 63.6328 1735.11 62.7031 1736.41 62.1406C1737.72 61.5625 1739.28 61.2734 1741.09 61.2734C1742.28 61.2734 1743.37 61.375 1744.35 61.5781C1745.34 61.7656 1746.16 61.9844 1746.84 62.2344L1745.41 66.4062C1744.88 66.2344 1744.28 66.0781 1743.62 65.9375C1742.97 65.7812 1742.27 65.7031 1741.52 65.7031C1740.27 65.7031 1739.34 66.0938 1738.75 66.875C1738.17 67.6562 1737.88 68.7969 1737.88 70.2969V72.0547H1744.19V76.25ZM1758.95 71.5625C1761.27 71.5625 1763.25 72.0391 1764.91 72.9922C1766.56 73.9453 1767.84 75.2969 1768.73 77.0469C1769.62 78.7969 1770.06 80.8906 1770.06 83.3281V86.2812H1752.74C1752.8 88.7969 1753.48 90.7344 1754.76 92.0938C1756.05 93.4531 1757.87 94.1328 1760.2 94.1328C1761.85 94.1328 1763.34 93.9766 1764.65 93.6641C1765.98 93.3359 1767.34 92.8594 1768.75 92.2344V96.7109C1767.45 97.3203 1766.13 97.7656 1764.79 98.0469C1763.45 98.3281 1761.84 98.4688 1759.96 98.4688C1757.41 98.4688 1755.17 97.9766 1753.23 96.9922C1751.31 95.9922 1749.8 94.5078 1748.71 92.5391C1747.63 90.5703 1747.09 88.125 1747.09 85.2031C1747.09 82.2969 1747.59 79.8281 1748.57 77.7969C1749.55 75.7656 1750.94 74.2188 1752.72 73.1562C1754.5 72.0938 1756.58 71.5625 1758.95 71.5625ZM1758.95 75.7109C1757.22 75.7109 1755.81 76.2734 1754.73 77.3984C1753.67 78.5234 1753.05 80.1719 1752.86 82.3438H1764.67C1764.66 81.0469 1764.44 79.8984 1764.02 78.8984C1763.61 77.8984 1762.98 77.1172 1762.14 76.5547C1761.31 75.9922 1760.25 75.7109 1758.95 75.7109ZM1789.42 71.5625C1789.86 71.5625 1790.34 71.5859 1790.85 71.6328C1791.37 71.6797 1791.81 71.7422 1792.19 71.8203L1791.67 76.9766C1791.34 76.8828 1790.94 76.8125 1790.45 76.7656C1789.98 76.7188 1789.56 76.6953 1789.19 76.6953C1788.2 76.6953 1787.27 76.8594 1786.38 77.1875C1785.48 77.5 1784.7 77.9844 1784.01 78.6406C1783.32 79.2812 1782.78 80.0859 1782.39 81.0547C1782 82.0234 1781.8 83.1484 1781.8 84.4297V98H1776.27V72.0547H1780.59L1781.34 76.625H1781.59C1782.11 75.7031 1782.75 74.8594 1783.52 74.0938C1784.28 73.3281 1785.16 72.7188 1786.14 72.2656C1787.14 71.7969 1788.23 71.5625 1789.42 71.5625ZM1807.33 71.5625C1809.64 71.5625 1811.62 72.0391 1813.28 72.9922C1814.94 73.9453 1816.21 75.2969 1817.1 77.0469C1817.99 78.7969 1818.44 80.8906 1818.44 83.3281V86.2812H1801.12C1801.18 88.7969 1801.85 90.7344 1803.13 92.0938C1804.43 93.4531 1806.24 94.1328 1808.57 94.1328C1810.23 94.1328 1811.71 93.9766 1813.02 93.6641C1814.35 93.3359 1815.72 92.8594 1817.12 92.2344V96.7109C1815.83 97.3203 1814.51 97.7656 1813.16 98.0469C1811.82 98.3281 1810.21 98.4688 1808.34 98.4688C1805.79 98.4688 1803.55 97.9766 1801.61 96.9922C1799.69 95.9922 1798.18 94.5078 1797.09 92.5391C1796.01 90.5703 1795.47 88.125 1795.47 85.2031C1795.47 82.2969 1795.96 79.8281 1796.95 77.7969C1797.93 75.7656 1799.31 74.2188 1801.09 73.1562C1802.88 72.0938 1804.95 71.5625 1807.33 71.5625ZM1807.33 75.7109C1805.59 75.7109 1804.19 76.2734 1803.11 77.3984C1802.05 78.5234 1801.42 80.1719 1801.23 82.3438H1813.05C1813.03 81.0469 1812.81 79.8984 1812.39 78.8984C1811.98 77.8984 1811.36 77.1172 1810.52 76.5547C1809.69 75.9922 1808.62 75.7109 1807.33 75.7109ZM1838.17 71.5625C1841.09 71.5625 1843.37 72.3203 1844.99 73.8359C1846.63 75.3359 1847.45 77.75 1847.45 81.0781V98H1841.95V82.1094C1841.95 80.0938 1841.53 78.5859 1840.7 77.5859C1839.88 76.5703 1838.59 76.0625 1836.86 76.0625C1834.34 76.0625 1832.59 76.8359 1831.61 78.3828C1830.64 79.9297 1830.16 82.1719 1830.16 85.1094V98H1824.65V72.0547H1828.94L1829.71 75.5703H1830.02C1830.58 74.6641 1831.27 73.9219 1832.1 73.3438C1832.95 72.75 1833.88 72.3047 1834.91 72.0078C1835.96 71.7109 1837.05 71.5625 1838.17 71.5625ZM1865.62 98.4688C1863.16 98.4688 1861.04 97.9922 1859.24 97.0391C1857.45 96.0859 1856.06 94.625 1855.09 92.6562C1854.12 90.6875 1853.64 88.1875 1853.64 85.1562C1853.64 82 1854.17 79.4219 1855.23 77.4219C1856.3 75.4219 1857.77 73.9453 1859.64 72.9922C1861.53 72.0391 1863.7 71.5625 1866.13 71.5625C1867.68 71.5625 1869.08 71.7188 1870.33 72.0312C1871.59 72.3281 1872.66 72.6953 1873.54 73.1328L1871.9 77.5391C1870.95 77.1484 1869.97 76.8203 1868.97 76.5547C1867.97 76.2891 1867.01 76.1562 1866.09 76.1562C1864.57 76.1562 1863.3 76.4922 1862.29 77.1641C1861.29 77.8359 1860.54 78.8359 1860.04 80.1641C1859.55 81.4922 1859.31 83.1406 1859.31 85.1094C1859.31 87.0156 1859.56 88.625 1860.06 89.9375C1860.56 91.2344 1861.3 92.2188 1862.29 92.8906C1863.27 93.5469 1864.48 93.875 1865.92 93.875C1867.34 93.875 1868.62 93.7031 1869.74 93.3594C1870.87 93.0156 1871.93 92.5703 1872.93 92.0234V96.8047C1871.95 97.3672 1870.89 97.7812 1869.77 98.0469C1868.64 98.3281 1867.26 98.4688 1865.62 98.4688ZM1870.12 104.281C1870.12 105.938 1869.56 107.227 1868.45 108.148C1867.34 109.07 1865.54 109.531 1863.04 109.531C1862.45 109.531 1861.9 109.492 1861.4 109.414C1860.9 109.336 1860.47 109.25 1860.11 109.156V105.945C1860.48 106.039 1860.95 106.125 1861.52 106.203C1862.08 106.281 1862.59 106.32 1863.06 106.32C1863.88 106.32 1864.52 106.18 1864.98 105.898C1865.47 105.617 1865.71 105.141 1865.71 104.469C1865.71 103.75 1865.36 103.18 1864.66 102.758C1863.95 102.336 1862.91 102.039 1861.54 101.867L1863.51 98H1867.07L1866.11 100.016C1866.83 100.203 1867.48 100.477 1868.08 100.836C1868.69 101.195 1869.18 101.656 1869.55 102.219C1869.93 102.797 1870.12 103.484 1870.12 104.281ZM1889.2 71.5625C1892.48 71.5625 1894.95 72.2891 1896.62 73.7422C1898.31 75.1953 1899.16 77.4609 1899.16 80.5391V98H1895.24L1894.19 94.3203H1894C1893.27 95.2578 1892.51 96.0312 1891.73 96.6406C1890.95 97.25 1890.04 97.7031 1889.01 98C1887.99 98.3125 1886.75 98.4688 1885.28 98.4688C1883.73 98.4688 1882.35 98.1875 1881.13 97.625C1879.91 97.0469 1878.95 96.1719 1878.25 95C1877.55 93.8281 1877.2 92.3438 1877.2 90.5469C1877.2 87.875 1878.19 85.8672 1880.17 84.5234C1882.17 83.1797 1885.19 82.4375 1889.22 82.2969L1893.72 82.1328V80.7734C1893.72 78.9766 1893.3 77.6953 1892.45 76.9297C1891.62 76.1641 1890.45 75.7812 1888.94 75.7812C1887.64 75.7812 1886.38 75.9688 1885.16 76.3438C1883.95 76.7188 1882.76 77.1797 1881.6 77.7266L1879.82 73.8359C1881.09 73.1641 1882.52 72.6172 1884.13 72.1953C1885.76 71.7734 1887.45 71.5625 1889.2 71.5625ZM1893.7 85.6016L1890.34 85.7188C1887.59 85.8125 1885.66 86.2812 1884.55 87.125C1883.45 87.9688 1882.89 89.125 1882.89 90.5938C1882.89 91.875 1883.27 92.8125 1884.04 93.4062C1884.8 93.9844 1885.81 94.2734 1887.06 94.2734C1888.97 94.2734 1890.55 93.7344 1891.8 92.6562C1893.06 91.5625 1893.7 89.9609 1893.7 87.8516V85.6016ZM1924.3 90.5938C1924.3 92.2969 1923.89 93.7344 1923.06 94.9062C1922.23 96.0781 1921.02 96.9688 1919.43 97.5781C1917.85 98.1719 1915.91 98.4688 1913.62 98.4688C1911.8 98.4688 1910.24 98.3359 1908.93 98.0703C1907.63 97.8203 1906.41 97.4297 1905.25 96.8984V92.1406C1906.48 92.7188 1907.87 93.2188 1909.4 93.6406C1910.95 94.0625 1912.41 94.2734 1913.78 94.2734C1915.59 94.2734 1916.9 93.9922 1917.7 93.4297C1918.49 92.8516 1918.89 92.0859 1918.89 91.1328C1918.89 90.5703 1918.73 90.0703 1918.4 89.6328C1918.09 89.1797 1917.49 88.7188 1916.62 88.25C1915.76 87.7656 1914.49 87.1875 1912.82 86.5156C1911.18 85.8594 1909.8 85.2031 1908.67 84.5469C1907.55 83.8906 1906.7 83.1016 1906.12 82.1797C1905.54 81.2422 1905.25 80.0469 1905.25 78.5938C1905.25 76.2969 1906.16 74.5547 1907.97 73.3672C1909.8 72.1641 1912.21 71.5625 1915.21 71.5625C1916.8 71.5625 1918.3 71.7266 1919.71 72.0547C1921.13 72.3672 1922.52 72.8281 1923.88 73.4375L1922.15 77.5859C1920.98 77.0703 1919.8 76.6484 1918.61 76.3203C1917.44 75.9766 1916.24 75.8047 1915.02 75.8047C1913.6 75.8047 1912.52 76.0234 1911.77 76.4609C1911.03 76.8984 1910.66 77.5234 1910.66 78.3359C1910.66 78.9453 1910.84 79.4609 1911.2 79.8828C1911.56 80.3047 1912.18 80.7266 1913.05 81.1484C1913.95 81.5703 1915.18 82.0938 1916.76 82.7188C1918.3 83.3125 1919.64 83.9375 1920.77 84.5938C1921.91 85.2344 1922.78 86.0234 1923.39 86.9609C1924 87.8984 1924.3 89.1094 1924.3 90.5938Z" fill="black"/>
<rect x="289" width="1259" height="162" rx="81" fill="white"/>
<path d="M985.797 68.0234C984.156 68.0234 982.688 68.3203 981.391 68.9141C980.109 69.5078 979.023 70.3672 978.133 71.4922C977.242 72.6016 976.562 73.9531 976.094 75.5469C975.625 77.125 975.391 78.9062 975.391 80.8906C975.391 83.5469 975.766 85.8359 976.516 87.7578C977.266 89.6641 978.406 91.1328 979.938 92.1641C981.469 93.1797 983.406 93.6875 985.75 93.6875C987.203 93.6875 988.617 93.5469 989.992 93.2656C991.367 92.9844 992.789 92.6016 994.258 92.1172V96.8984C992.867 97.4453 991.461 97.8438 990.039 98.0938C988.617 98.3438 986.977 98.4688 985.117 98.4688C981.617 98.4688 978.711 97.7422 976.398 96.2891C974.102 94.8359 972.383 92.7891 971.242 90.1484C970.117 87.5078 969.555 84.4141 969.555 80.8672C969.555 78.2734 969.914 75.8984 970.633 73.7422C971.352 71.5859 972.398 69.7266 973.773 68.1641C975.148 66.5859 976.844 65.375 978.859 64.5312C980.891 63.6719 983.211 63.2422 985.82 63.2422C987.539 63.2422 989.227 63.4375 990.883 63.8281C992.555 64.2031 994.102 64.7422 995.523 65.4453L993.555 70.0859C992.367 69.5234 991.125 69.0391 989.828 68.6328C988.531 68.2266 987.188 68.0234 985.797 68.0234ZM1011.23 71.5625C1014.51 71.5625 1016.98 72.2891 1018.66 73.7422C1020.34 75.1953 1021.19 77.4609 1021.19 80.5391V98H1017.27L1016.22 94.3203H1016.03C1015.3 95.2578 1014.54 96.0312 1013.76 96.6406C1012.98 97.25 1012.07 97.7031 1011.04 98C1010.02 98.3125 1008.78 98.4688 1007.31 98.4688C1005.77 98.4688 1004.38 98.1875 1003.16 97.625C1001.95 97.0469 1000.98 96.1719 1000.28 95C999.578 93.8281 999.227 92.3438 999.227 90.5469C999.227 87.875 1000.22 85.8672 1002.2 84.5234C1004.2 83.1797 1007.22 82.4375 1011.25 82.2969L1015.75 82.1328V80.7734C1015.75 78.9766 1015.33 77.6953 1014.48 76.9297C1013.66 76.1641 1012.48 75.7812 1010.97 75.7812C1009.67 75.7812 1008.41 75.9688 1007.2 76.3438C1005.98 76.7188 1004.79 77.1797 1003.63 77.7266L1001.85 73.8359C1003.12 73.1641 1004.55 72.6172 1006.16 72.1953C1007.79 71.7734 1009.48 71.5625 1011.23 71.5625ZM1015.73 85.6016L1012.38 85.7188C1009.62 85.8125 1007.7 86.2812 1006.59 87.125C1005.48 87.9688 1004.92 89.125 1004.92 90.5938C1004.92 91.875 1005.3 92.8125 1006.07 93.4062C1006.84 93.9844 1007.84 94.2734 1009.09 94.2734C1011 94.2734 1012.58 93.7344 1013.83 92.6562C1015.09 91.5625 1015.73 89.9609 1015.73 87.8516V85.6016ZM1037.62 98.4688C1034.52 98.4688 1032.04 97.3438 1030.16 95.0938C1028.3 92.8281 1027.38 89.4922 1027.38 85.0859C1027.38 80.6328 1028.32 77.2656 1030.21 74.9844C1032.12 72.7031 1034.62 71.5625 1037.73 71.5625C1039.05 71.5625 1040.2 71.7422 1041.18 72.1016C1042.16 72.4453 1043.01 72.9141 1043.71 73.5078C1044.43 74.1016 1045.04 74.7656 1045.54 75.5H1045.8C1045.72 75.0156 1045.62 74.3203 1045.52 73.4141C1045.42 72.4922 1045.38 71.6406 1045.38 70.8594V61.5312H1050.91V98H1046.59L1045.61 94.4609H1045.38C1044.91 95.2109 1044.31 95.8906 1043.59 96.5C1042.89 97.0938 1042.05 97.5703 1041.06 97.9297C1040.09 98.2891 1038.95 98.4688 1037.62 98.4688ZM1039.16 93.9922C1041.52 93.9922 1043.19 93.3125 1044.16 91.9531C1045.12 90.5938 1045.62 88.5547 1045.66 85.8359V85.1094C1045.66 82.2031 1045.19 79.9766 1044.25 78.4297C1043.31 76.8672 1041.6 76.0859 1039.12 76.0859C1037.13 76.0859 1035.62 76.8906 1034.57 78.5C1033.54 80.0938 1033.02 82.3203 1033.02 85.1797C1033.02 88.0391 1033.54 90.2266 1034.57 91.7422C1035.62 93.2422 1037.15 93.9922 1039.16 93.9922ZM1069.14 71.5625C1071.45 71.5625 1073.44 72.0391 1075.09 72.9922C1076.75 73.9453 1078.02 75.2969 1078.91 77.0469C1079.8 78.7969 1080.25 80.8906 1080.25 83.3281V86.2812H1062.93C1062.99 88.7969 1063.66 90.7344 1064.95 92.0938C1066.24 93.4531 1068.05 94.1328 1070.38 94.1328C1072.04 94.1328 1073.52 93.9766 1074.84 93.6641C1076.16 93.3359 1077.53 92.8594 1078.94 92.2344V96.7109C1077.64 97.3203 1076.32 97.7656 1074.98 98.0469C1073.63 98.3281 1072.02 98.4688 1070.15 98.4688C1067.6 98.4688 1065.36 97.9766 1063.42 96.9922C1061.5 95.9922 1059.99 94.5078 1058.9 92.5391C1057.82 90.5703 1057.28 88.125 1057.28 85.2031C1057.28 82.2969 1057.77 79.8281 1058.76 77.7969C1059.74 75.7656 1061.12 74.2188 1062.91 73.1562C1064.69 72.0938 1066.77 71.5625 1069.14 71.5625ZM1069.14 75.7109C1067.41 75.7109 1066 76.2734 1064.92 77.3984C1063.86 78.5234 1063.23 80.1719 1063.05 82.3438H1074.86C1074.84 81.0469 1074.62 79.8984 1074.2 78.8984C1073.8 77.8984 1073.17 77.1172 1072.33 76.5547C1071.5 75.9922 1070.44 75.7109 1069.14 75.7109ZM1091.97 72.0547V98H1086.46V72.0547H1091.97ZM1089.25 62.1172C1090.09 62.1172 1090.82 62.3438 1091.43 62.7969C1092.05 63.25 1092.37 64.0312 1092.37 65.1406C1092.37 66.2344 1092.05 67.0156 1091.43 67.4844C1090.82 67.9375 1090.09 68.1641 1089.25 68.1641C1088.38 68.1641 1087.63 67.9375 1087.02 67.4844C1086.43 67.0156 1086.13 66.2344 1086.13 65.1406C1086.13 64.0312 1086.43 63.25 1087.02 62.7969C1087.63 62.3438 1088.38 62.1172 1089.25 62.1172ZM1110.04 71.5625C1113.32 71.5625 1115.8 72.2891 1117.47 73.7422C1119.16 75.1953 1120 77.4609 1120 80.5391V98H1116.09L1115.03 94.3203H1114.84C1114.11 95.2578 1113.35 96.0312 1112.57 96.6406C1111.79 97.25 1110.88 97.7031 1109.85 98C1108.84 98.3125 1107.59 98.4688 1106.12 98.4688C1104.58 98.4688 1103.2 98.1875 1101.98 97.625C1100.76 97.0469 1099.8 96.1719 1099.09 95C1098.39 93.8281 1098.04 92.3438 1098.04 90.5469C1098.04 87.875 1099.03 85.8672 1101.02 84.5234C1103.02 83.1797 1106.03 82.4375 1110.06 82.2969L1114.56 82.1328V80.7734C1114.56 78.9766 1114.14 77.6953 1113.3 76.9297C1112.47 76.1641 1111.3 75.7812 1109.78 75.7812C1108.48 75.7812 1107.23 75.9688 1106.01 76.3438C1104.79 76.7188 1103.6 77.1797 1102.45 77.7266L1100.66 73.8359C1101.93 73.1641 1103.37 72.6172 1104.98 72.1953C1106.6 71.7734 1108.29 71.5625 1110.04 71.5625ZM1114.54 85.6016L1111.19 85.7188C1108.44 85.8125 1106.51 86.2812 1105.4 87.125C1104.29 87.9688 1103.73 89.125 1103.73 90.5938C1103.73 91.875 1104.12 92.8125 1104.88 93.4062C1105.65 93.9844 1106.66 94.2734 1107.91 94.2734C1109.81 94.2734 1111.39 93.7344 1112.64 92.6562C1113.91 91.5625 1114.54 89.9609 1114.54 87.8516V85.6016ZM1161.98 98L1158.62 88.4844H1145.52L1142.17 98H1136.24L1148.99 63.5938H1155.23L1167.95 98H1161.98ZM1157.17 83.6562L1153.91 74.2812C1153.79 73.875 1153.61 73.3047 1153.38 72.5703C1153.14 71.8203 1152.91 71.0625 1152.67 70.2969C1152.44 69.5156 1152.24 68.8594 1152.09 68.3281C1151.93 68.9688 1151.73 69.6875 1151.5 70.4844C1151.28 71.2656 1151.06 72 1150.84 72.6875C1150.64 73.375 1150.48 73.9062 1150.38 74.2812L1147.09 83.6562H1157.17ZM1177.45 98H1171.91V61.5312H1177.45V98ZM1190.83 72.0547V98H1185.32V72.0547H1190.83ZM1188.11 62.1172C1188.95 62.1172 1189.68 62.3438 1190.29 62.7969C1190.91 63.25 1191.23 64.0312 1191.23 65.1406C1191.23 66.2344 1190.91 67.0156 1190.29 67.4844C1189.68 67.9375 1188.95 68.1641 1188.11 68.1641C1187.23 68.1641 1186.49 67.9375 1185.88 67.4844C1185.29 67.0156 1184.99 66.2344 1184.99 65.1406C1184.99 64.0312 1185.29 63.25 1185.88 62.7969C1186.49 62.3438 1187.23 62.1172 1188.11 62.1172ZM1228.05 71.5625C1230.95 71.5625 1233.14 72.3125 1234.61 73.8125C1236.09 75.3125 1236.84 77.7188 1236.84 81.0312V98H1231.33V82.0156C1231.33 80.0469 1230.95 78.5625 1230.18 77.5625C1229.41 76.5625 1228.25 76.0625 1226.69 76.0625C1224.5 76.0625 1222.92 76.7656 1221.95 78.1719C1221 79.5625 1220.52 81.5859 1220.52 84.2422V98H1215.02V82.0156C1215.02 80.7031 1214.84 79.6094 1214.5 78.7344C1214.17 77.8438 1213.66 77.1797 1212.98 76.7422C1212.29 76.2891 1211.42 76.0625 1210.38 76.0625C1208.86 76.0625 1207.65 76.4062 1206.74 77.0938C1205.85 77.7812 1205.21 78.7969 1204.82 80.1406C1204.43 81.4688 1204.23 83.1016 1204.23 85.0391V98H1198.73V72.0547H1203.02L1203.79 75.5469H1204.09C1204.62 74.6406 1205.28 73.8984 1206.06 73.3203C1206.86 72.7266 1207.74 72.2891 1208.71 72.0078C1209.68 71.7109 1210.69 71.5625 1211.73 71.5625C1213.67 71.5625 1215.3 71.9062 1216.63 72.5938C1217.96 73.2656 1218.95 74.2969 1219.61 75.6875H1220.03C1220.84 74.2812 1221.98 73.2422 1223.43 72.5703C1224.88 71.8984 1226.42 71.5625 1228.05 71.5625ZM1254.86 71.5625C1257.17 71.5625 1259.16 72.0391 1260.81 72.9922C1262.47 73.9453 1263.74 75.2969 1264.63 77.0469C1265.52 78.7969 1265.97 80.8906 1265.97 83.3281V86.2812H1248.65C1248.71 88.7969 1249.38 90.7344 1250.66 92.0938C1251.96 93.4531 1253.77 94.1328 1256.1 94.1328C1257.76 94.1328 1259.24 93.9766 1260.55 93.6641C1261.88 93.3359 1263.25 92.8594 1264.66 92.2344V96.7109C1263.36 97.3203 1262.04 97.7656 1260.7 98.0469C1259.35 98.3281 1257.74 98.4688 1255.87 98.4688C1253.32 98.4688 1251.08 97.9766 1249.14 96.9922C1247.22 95.9922 1245.71 94.5078 1244.62 92.5391C1243.54 90.5703 1243 88.125 1243 85.2031C1243 82.2969 1243.49 79.8281 1244.48 77.7969C1245.46 75.7656 1246.84 74.2188 1248.62 73.1562C1250.41 72.0938 1252.48 71.5625 1254.86 71.5625ZM1254.86 75.7109C1253.12 75.7109 1251.72 76.2734 1250.64 77.3984C1249.58 78.5234 1248.95 80.1719 1248.77 82.3438H1260.58C1260.56 81.0469 1260.34 79.8984 1259.92 78.8984C1259.52 77.8984 1258.89 77.1172 1258.05 76.5547C1257.22 75.9922 1256.16 75.7109 1254.86 75.7109ZM1285.7 71.5625C1288.62 71.5625 1290.9 72.3203 1292.52 73.8359C1294.16 75.3359 1294.98 77.75 1294.98 81.0781V98H1289.48V82.1094C1289.48 80.0938 1289.06 78.5859 1288.23 77.5859C1287.41 76.5703 1286.12 76.0625 1284.39 76.0625C1281.88 76.0625 1280.12 76.8359 1279.14 78.3828C1278.17 79.9297 1277.69 82.1719 1277.69 85.1094V98H1272.18V72.0547H1276.47L1277.24 75.5703H1277.55C1278.11 74.6641 1278.8 73.9219 1279.63 73.3438C1280.48 72.75 1281.41 72.3047 1282.45 72.0078C1283.49 71.7109 1284.58 71.5625 1285.7 71.5625ZM1312.35 94.0156C1313.07 94.0156 1313.78 93.9531 1314.48 93.8281C1315.19 93.6875 1315.83 93.5234 1316.41 93.3359V97.5078C1315.8 97.7734 1315.01 98 1314.04 98.1875C1313.07 98.375 1312.06 98.4688 1311.02 98.4688C1309.55 98.4688 1308.23 98.2266 1307.05 97.7422C1305.88 97.2422 1304.95 96.3906 1304.27 95.1875C1303.58 93.9844 1303.23 92.3203 1303.23 90.1953V76.25H1299.7V73.7891L1303.49 71.8438L1305.3 66.2891H1308.77V72.0547H1316.2V76.25H1308.77V90.125C1308.77 91.4375 1309.09 92.4141 1309.75 93.0547C1310.41 93.6953 1311.27 94.0156 1312.35 94.0156ZM1331.85 71.5625C1335.13 71.5625 1337.61 72.2891 1339.28 73.7422C1340.97 75.1953 1341.81 77.4609 1341.81 80.5391V98H1337.9L1336.84 94.3203H1336.66C1335.92 95.2578 1335.16 96.0312 1334.38 96.6406C1333.6 97.25 1332.7 97.7031 1331.66 98C1330.65 98.3125 1329.41 98.4688 1327.94 98.4688C1326.39 98.4688 1325.01 98.1875 1323.79 97.625C1322.57 97.0469 1321.61 96.1719 1320.91 95C1320.2 93.8281 1319.85 92.3438 1319.85 90.5469C1319.85 87.875 1320.84 85.8672 1322.83 84.5234C1324.83 83.1797 1327.84 82.4375 1331.88 82.2969L1336.38 82.1328V80.7734C1336.38 78.9766 1335.95 77.6953 1335.11 76.9297C1334.28 76.1641 1333.11 75.7812 1331.59 75.7812C1330.3 75.7812 1329.04 75.9688 1327.82 76.3438C1326.6 76.7188 1325.41 77.1797 1324.26 77.7266L1322.48 73.8359C1323.74 73.1641 1325.18 72.6172 1326.79 72.1953C1328.41 71.7734 1330.1 71.5625 1331.85 71.5625ZM1336.35 85.6016L1333 85.7188C1330.25 85.8125 1328.32 86.2812 1327.21 87.125C1326.1 87.9688 1325.55 89.125 1325.55 90.5938C1325.55 91.875 1325.93 92.8125 1326.7 93.4062C1327.46 93.9844 1328.47 94.2734 1329.72 94.2734C1331.62 94.2734 1333.2 93.7344 1334.45 92.6562C1335.72 91.5625 1336.35 89.9609 1336.35 87.8516V85.6016ZM1362.67 71.5625C1363.11 71.5625 1363.59 71.5859 1364.1 71.6328C1364.62 71.6797 1365.06 71.7422 1365.44 71.8203L1364.92 76.9766C1364.59 76.8828 1364.19 76.8125 1363.7 76.7656C1363.23 76.7188 1362.81 76.6953 1362.44 76.6953C1361.45 76.6953 1360.52 76.8594 1359.62 77.1875C1358.73 77.5 1357.95 77.9844 1357.26 78.6406C1356.57 79.2812 1356.03 80.0859 1355.64 81.0547C1355.25 82.0234 1355.05 83.1484 1355.05 84.4297V98H1349.52V72.0547H1353.84L1354.59 76.625H1354.84C1355.36 75.7031 1356 74.8594 1356.77 74.0938C1357.53 73.3281 1358.41 72.7188 1359.39 72.2656C1360.39 71.7969 1361.48 71.5625 1362.67 71.5625Z" fill="black"/>
<rect x="-78" width="913" height="162" rx="81" fill="#C0DBB6"/>
<path d="M225.594 98H219.945V68.5156H209.914V63.7344H235.602V68.5156H225.594V98ZM250.625 71.5625C252.938 71.5625 254.922 72.0391 256.578 72.9922C258.234 73.9453 259.508 75.2969 260.398 77.0469C261.289 78.7969 261.734 80.8906 261.734 83.3281V86.2812H244.414C244.477 88.7969 245.148 90.7344 246.43 92.0938C247.727 93.4531 249.539 94.1328 251.867 94.1328C253.523 94.1328 255.008 93.9766 256.32 93.6641C257.648 93.3359 259.016 92.8594 260.422 92.2344V96.7109C259.125 97.3203 257.805 97.7656 256.461 98.0469C255.117 98.3281 253.508 98.4688 251.633 98.4688C249.086 98.4688 246.844 97.9766 244.906 96.9922C242.984 95.9922 241.477 94.5078 240.383 92.5391C239.305 90.5703 238.766 88.125 238.766 85.2031C238.766 82.2969 239.258 79.8281 240.242 77.7969C241.227 75.7656 242.609 74.2188 244.391 73.1562C246.172 72.0938 248.25 71.5625 250.625 71.5625ZM250.625 75.7109C248.891 75.7109 247.484 76.2734 246.406 77.3984C245.344 78.5234 244.719 80.1719 244.531 82.3438H256.344C256.328 81.0469 256.109 79.8984 255.688 78.8984C255.281 77.8984 254.656 77.1172 253.812 76.5547C252.984 75.9922 251.922 75.7109 250.625 75.7109ZM273.453 72.0547V98H267.945V72.0547H273.453ZM270.734 62.1172C271.578 62.1172 272.305 62.3438 272.914 62.7969C273.539 63.25 273.852 64.0312 273.852 65.1406C273.852 66.2344 273.539 67.0156 272.914 67.4844C272.305 67.9375 271.578 68.1641 270.734 68.1641C269.859 68.1641 269.117 67.9375 268.508 67.4844C267.914 67.0156 267.617 66.2344 267.617 65.1406C267.617 64.0312 267.914 63.25 268.508 62.7969C269.117 62.3438 269.859 62.1172 270.734 62.1172ZM291.523 71.5625C294.805 71.5625 297.281 72.2891 298.953 73.7422C300.641 75.1953 301.484 77.4609 301.484 80.5391V98H297.57L296.516 94.3203H296.328C295.594 95.2578 294.836 96.0312 294.055 96.6406C293.273 97.25 292.367 97.7031 291.336 98C290.32 98.3125 289.078 98.4688 287.609 98.4688C286.062 98.4688 284.68 98.1875 283.461 97.625C282.242 97.0469 281.281 96.1719 280.578 95C279.875 93.8281 279.523 92.3438 279.523 90.5469C279.523 87.875 280.516 85.8672 282.5 84.5234C284.5 83.1797 287.516 82.4375 291.547 82.2969L296.047 82.1328V80.7734C296.047 78.9766 295.625 77.6953 294.781 76.9297C293.953 76.1641 292.781 75.7812 291.266 75.7812C289.969 75.7812 288.711 75.9688 287.492 76.3438C286.273 76.7188 285.086 77.1797 283.93 77.7266L282.148 73.8359C283.414 73.1641 284.852 72.6172 286.461 72.1953C288.086 71.7734 289.773 71.5625 291.523 71.5625ZM296.023 85.6016L292.672 85.7188C289.922 85.8125 287.992 86.2812 286.883 87.125C285.773 87.9688 285.219 89.125 285.219 90.5938C285.219 91.875 285.602 92.8125 286.367 93.4062C287.133 93.9844 288.141 94.2734 289.391 94.2734C291.297 94.2734 292.875 93.7344 294.125 92.6562C295.391 91.5625 296.023 89.9609 296.023 87.8516V85.6016ZM343.461 98L340.109 88.4844H327.008L323.656 98H317.727L330.477 63.5938H336.711L349.438 98H343.461ZM338.656 83.6562L335.398 74.2812C335.273 73.875 335.094 73.3047 334.859 72.5703C334.625 71.8203 334.391 71.0625 334.156 70.2969C333.922 69.5156 333.727 68.8594 333.57 68.3281C333.414 68.9688 333.219 69.6875 332.984 70.4844C332.766 71.2656 332.547 72 332.328 72.6875C332.125 73.375 331.969 73.9062 331.859 74.2812L328.578 83.6562H338.656ZM358.93 98H353.398V61.5312H358.93V98ZM372.312 72.0547V98H366.805V72.0547H372.312ZM369.594 62.1172C370.438 62.1172 371.164 62.3438 371.773 62.7969C372.398 63.25 372.711 64.0312 372.711 65.1406C372.711 66.2344 372.398 67.0156 371.773 67.4844C371.164 67.9375 370.438 68.1641 369.594 68.1641C368.719 68.1641 367.977 67.9375 367.367 67.4844C366.773 67.0156 366.477 66.2344 366.477 65.1406C366.477 64.0312 366.773 63.25 367.367 62.7969C367.977 62.3438 368.719 62.1172 369.594 62.1172ZM409.531 71.5625C412.438 71.5625 414.625 72.3125 416.094 73.8125C417.578 75.3125 418.32 77.7188 418.32 81.0312V98H412.812V82.0156C412.812 80.0469 412.43 78.5625 411.664 77.5625C410.898 76.5625 409.734 76.0625 408.172 76.0625C405.984 76.0625 404.406 76.7656 403.438 78.1719C402.484 79.5625 402.008 81.5859 402.008 84.2422V98H396.5V82.0156C396.5 80.7031 396.328 79.6094 395.984 78.7344C395.656 77.8438 395.148 77.1797 394.461 76.7422C393.773 76.2891 392.906 76.0625 391.859 76.0625C390.344 76.0625 389.133 76.4062 388.227 77.0938C387.336 77.7812 386.695 78.7969 386.305 80.1406C385.914 81.4688 385.719 83.1016 385.719 85.0391V98H380.211V72.0547H384.5L385.273 75.5469H385.578C386.109 74.6406 386.766 73.8984 387.547 73.3203C388.344 72.7266 389.227 72.2891 390.195 72.0078C391.164 71.7109 392.172 71.5625 393.219 71.5625C395.156 71.5625 396.789 71.9062 398.117 72.5938C399.445 73.2656 400.438 74.2969 401.094 75.6875H401.516C402.328 74.2812 403.461 73.2422 404.914 72.5703C406.367 71.8984 407.906 71.5625 409.531 71.5625ZM436.344 71.5625C438.656 71.5625 440.641 72.0391 442.297 72.9922C443.953 73.9453 445.227 75.2969 446.117 77.0469C447.008 78.7969 447.453 80.8906 447.453 83.3281V86.2812H430.133C430.195 88.7969 430.867 90.7344 432.148 92.0938C433.445 93.4531 435.258 94.1328 437.586 94.1328C439.242 94.1328 440.727 93.9766 442.039 93.6641C443.367 93.3359 444.734 92.8594 446.141 92.2344V96.7109C444.844 97.3203 443.523 97.7656 442.18 98.0469C440.836 98.3281 439.227 98.4688 437.352 98.4688C434.805 98.4688 432.562 97.9766 430.625 96.9922C428.703 95.9922 427.195 94.5078 426.102 92.5391C425.023 90.5703 424.484 88.125 424.484 85.2031C424.484 82.2969 424.977 79.8281 425.961 77.7969C426.945 75.7656 428.328 74.2188 430.109 73.1562C431.891 72.0938 433.969 71.5625 436.344 71.5625ZM436.344 75.7109C434.609 75.7109 433.203 76.2734 432.125 77.3984C431.062 78.5234 430.438 80.1719 430.25 82.3438H442.062C442.047 81.0469 441.828 79.8984 441.406 78.8984C441 77.8984 440.375 77.1172 439.531 76.5547C438.703 75.9922 437.641 75.7109 436.344 75.7109ZM467.188 71.5625C470.109 71.5625 472.383 72.3203 474.008 73.8359C475.648 75.3359 476.469 77.75 476.469 81.0781V98H470.961V82.1094C470.961 80.0938 470.547 78.5859 469.719 77.5859C468.891 76.5703 467.609 76.0625 465.875 76.0625C463.359 76.0625 461.609 76.8359 460.625 78.3828C459.656 79.9297 459.172 82.1719 459.172 85.1094V98H453.664V72.0547H457.953L458.727 75.5703H459.031C459.594 74.6641 460.289 73.9219 461.117 73.3438C461.961 72.75 462.898 72.3047 463.93 72.0078C464.977 71.7109 466.062 71.5625 467.188 71.5625ZM493.836 94.0156C494.555 94.0156 495.266 93.9531 495.969 93.8281C496.672 93.6875 497.312 93.5234 497.891 93.3359V97.5078C497.281 97.7734 496.492 98 495.523 98.1875C494.555 98.375 493.547 98.4688 492.5 98.4688C491.031 98.4688 489.711 98.2266 488.539 97.7422C487.367 97.2422 486.438 96.3906 485.75 95.1875C485.062 93.9844 484.719 92.3203 484.719 90.1953V76.25H481.18V73.7891L484.977 71.8438L486.781 66.2891H490.25V72.0547H497.68V76.25H490.25V90.125C490.25 91.4375 490.578 92.4141 491.234 93.0547C491.891 93.6953 492.758 94.0156 493.836 94.0156ZM513.336 71.5625C516.617 71.5625 519.094 72.2891 520.766 73.7422C522.453 75.1953 523.297 77.4609 523.297 80.5391V98H519.383L518.328 94.3203H518.141C517.406 95.2578 516.648 96.0312 515.867 96.6406C515.086 97.25 514.18 97.7031 513.148 98C512.133 98.3125 510.891 98.4688 509.422 98.4688C507.875 98.4688 506.492 98.1875 505.273 97.625C504.055 97.0469 503.094 96.1719 502.391 95C501.688 93.8281 501.336 92.3438 501.336 90.5469C501.336 87.875 502.328 85.8672 504.312 84.5234C506.312 83.1797 509.328 82.4375 513.359 82.2969L517.859 82.1328V80.7734C517.859 78.9766 517.438 77.6953 516.594 76.9297C515.766 76.1641 514.594 75.7812 513.078 75.7812C511.781 75.7812 510.523 75.9688 509.305 76.3438C508.086 76.7188 506.898 77.1797 505.742 77.7266L503.961 73.8359C505.227 73.1641 506.664 72.6172 508.273 72.1953C509.898 71.7734 511.586 71.5625 513.336 71.5625ZM517.836 85.6016L514.484 85.7188C511.734 85.8125 509.805 86.2812 508.695 87.125C507.586 87.9688 507.031 89.125 507.031 90.5938C507.031 91.875 507.414 92.8125 508.18 93.4062C508.945 93.9844 509.953 94.2734 511.203 94.2734C513.109 94.2734 514.688 93.7344 515.938 92.6562C517.203 91.5625 517.836 89.9609 517.836 87.8516V85.6016ZM544.156 71.5625C544.594 71.5625 545.07 71.5859 545.586 71.6328C546.102 71.6797 546.547 71.7422 546.922 71.8203L546.406 76.9766C546.078 76.8828 545.672 76.8125 545.188 76.7656C544.719 76.7188 544.297 76.6953 543.922 76.6953C542.938 76.6953 542 76.8594 541.109 77.1875C540.219 77.5 539.43 77.9844 538.742 78.6406C538.055 79.2812 537.516 80.0859 537.125 81.0547C536.734 82.0234 536.539 83.1484 536.539 84.4297V98H531.008V72.0547H535.32L536.07 76.625H536.328C536.844 75.7031 537.484 74.8594 538.25 74.0938C539.016 73.3281 539.891 72.7188 540.875 72.2656C541.875 71.7969 542.969 71.5625 544.156 71.5625Z" fill="black"/>
</svg>
