<svg width="75" height="75" viewBox="0 0 75 75" fill="none" xmlns="http://www.w3.org/2000/svg">
<path d="M71.875 9.37517C68.8825 11.486 65.5691 13.1005 62.0625 14.1564C60.1804 11.9924 57.6792 10.4586 54.897 9.76244C52.1148 9.0663 49.1859 9.24141 46.5065 10.2641C43.8271 11.2868 41.5264 13.1077 39.9156 15.4805C38.3048 17.8534 37.4616 20.6637 37.5 23.5314V26.6564C32.0082 26.7988 26.5665 25.5808 21.6594 23.1109C16.7523 20.641 12.5322 16.9959 9.375 12.5002C9.375 12.5002 -3.125 40.6252 25 53.1252C18.5641 57.4938 10.8974 59.6843 3.125 59.3752C31.25 75.0002 65.625 59.3752 65.625 23.4377C65.6221 22.5672 65.5384 21.6989 65.375 20.8439C68.5644 17.6986 70.8151 13.7274 71.875 9.37517Z" stroke="#508668" stroke-width="5" stroke-linecap="round" stroke-linejoin="round"/>
</svg>
